<svg width="57" height="41" viewBox="0 0 57 41" fill="none" xmlns="http://www.w3.org/2000/svg">
<path d="M1.08045 36.7881L1.08406 36.7767L11.1837 5.02784C11.4355 4.1707 11.5618 3.27693 11.5578 2.37802C11.5472 2.21536 11.5671 2.0514 11.6172 1.89493C11.6172 1.89492 11.6172 1.89491 11.6172 1.89491L12.5695 2.1994L1.08045 36.7881ZM1.08045 36.7881L1.0771 36.7995C0.999136 37.0665 0.904152 37.5763 1.21791 38.0446C1.55518 38.548 2.09909 38.6241 2.40161 38.6241H7.63691C7.93824 38.6241 8.31852 38.5545 8.64395 38.2822C8.93845 38.0359 9.07781 37.7164 9.13258 37.4238L11.7617 29.3889H21.4741L24.2785 37.6169L24.2926 37.6583L24.3103 37.6983C24.434 37.9783 24.6385 38.222 24.9058 38.3904L24.9059 38.3905C25.163 38.5525 25.464 38.6354 25.7718 38.6241H31.6102C31.8993 38.6241 32.464 38.5381 32.766 37.9788C33.0147 37.518 32.8939 37.0476 32.8241 36.8301L32.8232 36.8275L21.531 2.00626C21.4658 1.74651 21.3192 1.47136 21.0446 1.26778C20.7577 1.055 20.4412 1.00258 20.1985 1.00258H12.9131C12.7409 0.991542 12.5685 1.01596 12.4063 1.07405C12.2142 1.14284 12.045 1.25571 11.9094 1.39921L1.08045 36.7881ZM40.4264 26.9119H48.6C51.1201 26.9119 52.9054 26.8439 53.8796 26.6892C54.2195 26.6493 54.5271 26.4883 54.754 26.2463C54.9769 26.0086 55.1097 25.707 55.1429 25.3934C55.3136 24.3238 55.3839 23.2392 55.3529 22.1552C55.3987 19.1709 54.4673 16.2552 52.7069 13.9038L52.7056 13.9021C50.8375 11.418 48.0257 10.2378 44.4648 10.2378C40.6722 10.2378 37.6116 11.6871 35.3936 14.5884C33.2197 17.4319 32.1622 20.9426 32.1621 25.0538C32.1621 25.0539 32.1621 25.0541 32.1621 25.0543H33.1621L40.4264 26.9119ZM40.4264 26.9119C40.5972 28.5183 41.1189 29.7443 41.9304 30.6563C42.8587 31.6996 44.31 32.3021 46.48 32.3L46.4899 32.3L46.4998 32.3002C48.3016 32.3342 50.0918 31.9735 51.7587 31.2392L40.4264 26.9119ZM47.55 20.7718C47.1718 20.7852 46.6664 20.7923 46.0291 20.7923H40.5045C40.7062 19.7824 41.0984 18.8245 41.6591 17.9779C42.2644 17.1273 43.0905 16.7004 44.2622 16.7004C45.5089 16.7004 46.2417 17.1196 46.6937 17.8385C47.2363 18.7061 47.5347 19.7243 47.55 20.7718ZM13.6063 21.452L16.55 11.0727C16.9325 12.3939 17.3885 13.957 17.8402 15.4963C18.3595 17.2659 18.8769 19.0165 19.2777 20.3557C19.3993 20.762 19.5104 21.1312 19.6077 21.452H13.6063ZM51.5452 32.3368C51.5451 32.3342 51.5451 32.3328 51.5451 32.3328C51.5451 32.3328 51.5452 32.3341 51.5452 32.3368Z" fill="#211A44" stroke="white" stroke-width="2"/>
</svg>
