<svg width="44" height="39" viewBox="0 0 44 39" fill="none" xmlns="http://www.w3.org/2000/svg">
<path d="M1.96334 35.0696L1.94927 35.1111L1.93888 35.1537C1.88393 35.3788 1.79638 35.8459 2.04868 36.2889C2.3591 36.8341 2.91393 36.9285 3.2312 36.9285H8.67179C9.43871 36.9811 10.0596 36.4534 10.2327 35.7786L12.2183 29.4889H21.6167L23.7735 35.9017C23.9515 36.4828 24.5274 36.9865 25.2457 36.9285H31.2895C31.5583 36.9285 32.1123 36.8614 32.4334 36.33C32.7057 35.8795 32.6034 35.4032 32.5475 35.1932L32.5382 35.158L32.5263 35.1236L21.8956 4.39317C21.8219 4.12034 21.6558 3.85339 21.3748 3.6672C21.0917 3.47949 20.7868 3.43722 20.5562 3.43722H13.002H12.9007L12.8013 3.45757C12.2348 3.57365 11.7015 4.12275 11.7685 4.82857C11.7651 5.385 11.7157 5.93776 11.6217 6.46385C11.5418 6.71423 11.4722 6.95886 11.412 7.17018C11.3894 7.24966 11.3681 7.32443 11.3481 7.39302L1.96334 35.0696ZM18.9636 20.5819L18.9636 20.582L18.9672 20.5926C19.0629 20.876 19.1544 21.1545 19.2403 21.4237H14.5663C14.8586 20.514 15.1463 19.543 15.421 18.5195C15.7088 17.5975 15.9881 16.6677 16.2612 15.7583C16.4285 15.2011 16.5935 14.6515 16.7568 14.1162C16.7948 13.9966 16.8321 13.8771 16.8686 13.7576C17.0134 14.2475 17.1664 14.7435 17.3274 15.2546C17.4715 15.7122 17.6086 16.1632 17.7474 16.6195L17.748 16.6217C17.8852 17.0728 18.024 17.5292 18.1702 17.9937C18.4332 18.8917 18.6978 19.7652 18.9636 20.5819ZM34.7455 9.28832L34.7666 9.31171L34.789 9.33374C35.6589 10.1877 36.8333 10.692 38.0708 10.6666C39.3379 10.7294 40.6015 10.2315 41.4698 9.3033C42.3531 8.36038 42.7896 7.12602 42.7607 5.87171C42.7897 4.64265 42.3511 3.44835 41.5431 2.54539L41.536 2.53749L41.5288 2.52975C40.6682 1.60814 39.5114 1.1665 38.1437 1.1665C36.9329 1.1665 35.7438 1.61851 34.8473 2.49863C33.9487 3.38077 33.4686 4.59712 33.4975 5.87126C33.4686 7.12406 33.9033 8.35056 34.7455 9.28832ZM33.8187 12.5939V35.5999C33.8187 35.8977 33.8907 36.2885 34.1801 36.6147C34.4872 36.9607 34.8988 37.0779 35.2562 37.0779H40.9729C41.298 37.0779 41.7338 36.9765 42.0455 36.5822C42.3152 36.2408 42.352 35.8465 42.352 35.5999V12.5939C42.352 12.3375 42.2995 11.9529 42.014 11.6261C41.7058 11.2732 41.2944 11.1756 40.9729 11.1756H35.1979C34.9363 11.1756 34.5076 11.2337 34.1746 11.5949C33.8601 11.936 33.8187 12.3492 33.8187 12.5939Z" fill="#211A44" stroke="white" stroke-width="2"/>
</svg>
