<svg width="284" height="125" viewBox="0 0 284 125" fill="none" xmlns="http://www.w3.org/2000/svg">
<path d="M241.667 120.582C241.394 120.646 241.086 120.838 240.778 121.03C241.254 121.16 241.73 121.29 242.206 121.419C241.898 121.612 241.625 121.675 241.555 121.933C240.771 121.995 240.127 121.544 239.511 121.929C239.441 122.186 240.19 122.252 240.393 122.445C240.596 122.638 240.561 122.767 240.729 123.089C240.218 123.088 239.945 123.152 239.469 123.022C238.755 122.828 238.482 122.892 237.971 122.891C236.949 122.889 236.13 123.081 234.835 123.143C235.038 123.336 234.968 123.593 235.171 123.787C234.66 123.786 234.149 123.785 233.876 123.849C233.638 123.784 233.603 123.912 233.365 123.848C232.21 123.395 231.594 123.78 231.013 124.036C230.74 124.1 230.705 124.229 230.467 124.164C228.934 124.161 227.576 123.516 226.112 123.256C225.874 123.191 225.671 122.997 225.433 122.933C224.313 122.352 223.326 122.221 222.269 122.348C221.212 122.475 219.952 122.408 218.762 122.084C218.048 121.89 217.299 121.824 216.718 122.08C216.48 122.016 216.242 121.951 215.801 121.693C214.947 122.013 214.093 122.333 212.629 122.073C211.88 122.007 211.369 122.006 210.655 121.812C209.192 121.552 207.897 121.614 206.602 121.676C204.796 121.737 202.752 121.733 200.981 121.666C199.721 121.599 198.664 121.726 197.368 121.788C196.073 121.85 194.54 121.847 193.077 121.587C193.182 121.201 193.931 121.267 194.204 121.203C195.499 121.141 197.032 121.144 198.565 121.147C199.315 121.213 199.861 121.085 200.407 120.957C201.464 120.83 202.486 120.832 203.746 120.899C205.517 120.966 207.358 120.777 208.926 120.651C209.164 120.716 209.199 120.587 209.199 120.587C209.269 120.33 209.031 120.265 208.793 120.2C208.079 120.006 207.365 119.812 206.854 119.811C206.854 119.811 206.854 119.811 206.616 119.746C205.188 119.358 204.096 119.613 203.074 119.611C201.303 119.544 199.496 119.605 197.893 119.859C197.62 119.923 197.382 119.858 197.144 119.793C195.408 119.597 194.008 120.045 192.44 120.171C191.894 120.298 191.348 120.426 190.564 120.489C189.78 120.552 189.199 120.808 189.059 121.323C188.821 121.258 188.583 121.193 188.345 121.128C188.107 121.064 187.834 121.127 187.764 121.385C187.694 121.642 187.932 121.707 188.408 121.836C188.135 121.9 188.1 122.029 187.862 121.964C186.567 122.026 185.202 122.345 183.704 122.214C182.443 122.147 181.624 122.338 180.399 122.143C180.161 122.078 180.126 122.207 180.126 122.207C179.307 122.399 178.523 122.462 177.333 122.138C176.647 122.78 175.254 122.263 174.232 122.261C174.029 122.067 174.302 122.004 174.302 122.004C174.302 122.004 174.302 122.004 174.54 122.068C175.464 121.491 176.997 121.494 178.53 121.497C178.803 121.433 179.076 121.369 179.349 121.305C179.86 121.306 180.168 121.114 180.644 121.243C181.155 121.244 181.701 121.116 181.974 121.052C182.247 120.989 182.793 120.861 182.898 120.475C182.66 120.41 182.695 120.282 182.457 120.217C181.505 119.958 180.483 119.956 179.699 120.019C178.334 120.338 176.801 120.335 175.233 120.461C174.176 120.588 173.154 120.586 172.132 120.584L172.167 120.456C172.167 120.456 171.929 120.391 171.691 120.326C171.691 120.326 171.691 120.326 171.656 120.455L171.859 120.648L172.097 120.713C171.824 120.777 171.789 120.905 171.551 120.841C170.564 120.71 169.744 120.902 169.163 121.158C168.582 121.414 168.036 121.542 167.525 121.541C167.014 121.54 166.468 121.668 165.922 121.795C165.922 121.795 165.887 121.924 165.614 121.988C165.852 122.053 166.09 122.117 166.328 122.182C167.35 122.184 168.337 122.314 169.122 122.251C169.395 122.188 169.906 122.189 170.179 122.125C170.998 121.933 172.02 121.935 173.007 122.066L173.245 122.13C172.902 122.451 171.95 122.192 171.607 122.513C171.334 122.577 171.061 122.641 171.061 122.641C171.194 123.092 170.683 123.091 170.172 123.09C168.947 122.894 168.128 123.086 167.07 123.213C166.797 123.277 166.286 123.276 166.048 123.211C165.81 123.146 165.537 123.21 165.502 123.339C164.648 123.659 163.591 123.785 162.331 123.719C161.82 123.718 161.274 123.846 160.763 123.845C160.49 123.908 160.287 123.715 160.049 123.65C159.811 123.586 159.3 123.585 159.062 123.52C159.608 123.392 159.916 123.2 160.427 123.201C160.056 122.685 159.853 122.492 159.58 122.556C158.831 122.49 158.285 122.618 157.501 122.681C156.99 122.68 156.682 122.872 155.968 122.678C155.968 122.678 155.73 122.613 155.695 122.742C154.876 122.933 154.057 123.125 153.035 123.123C152.418 123.508 151.704 123.314 150.752 123.054C150.409 123.376 150.92 123.376 151.123 123.57C150.339 123.633 149.793 123.76 149.044 123.695C148.533 123.694 148.022 123.693 147.581 123.435C147.343 123.37 147.105 123.305 146.832 123.369C146.524 123.561 145.775 123.496 145.467 123.688C145.194 123.752 144.921 123.816 144.48 123.558C145.467 123.688 145.467 123.688 145.74 123.624C146.321 123.368 146.153 123.046 145.509 122.595C144.69 122.786 143.668 122.784 142.849 122.976C141.757 123.231 140.77 123.101 139.377 122.583C138.935 122.325 138.424 122.324 138.116 122.517C138.081 122.645 138.046 122.774 138.011 122.903C138.249 122.967 138.488 123.032 138.488 123.032L138.453 123.161C138.179 123.225 137.906 123.288 137.668 123.224C137.157 123.223 136.884 123.287 136.373 123.286C135.827 123.413 135.043 123.476 134.294 123.411C133.545 123.345 133.034 123.344 132.285 123.278C131.536 123.213 131.193 123.534 130.647 123.661C130.136 123.66 129.59 123.788 129.114 123.659C128.127 123.528 127.308 123.72 126.727 123.976C125.915 123.202 125.677 123.138 124.823 123.458C124.788 123.586 124.55 123.522 124.55 123.522C124.55 123.522 124.585 123.393 124.347 123.328L124.074 123.392C123.528 123.52 123.016 123.519 122.47 123.646C121.686 123.709 120.972 123.515 120.258 123.321C120.02 123.256 119.817 123.063 119.852 122.934C119.649 122.741 119.481 122.419 119.313 122.097C119.621 121.904 119.691 121.647 119.999 121.455C120.034 121.326 119.866 121.004 119.355 121.003C119.117 120.938 119.117 120.938 118.844 121.002C118.06 121.065 117.276 121.128 116.73 121.256C116.149 121.512 115.4 121.446 114.721 121.123C113.664 121.25 112.845 121.442 111.62 121.246C110.527 121.502 109.029 121.37 107.902 121.754C107.937 121.626 107.734 121.432 107.769 121.304C107.566 121.11 107.328 121.046 106.887 120.788C106.138 120.722 105.354 120.785 104.605 120.719C104.402 120.526 104.437 120.397 104.234 120.204C104.031 120.01 103.59 119.752 103.317 119.816C102.974 120.137 102.666 120.33 101.987 120.007C102.841 119.687 103.898 119.56 105.123 119.755C106.348 119.95 107.405 119.823 108.427 119.825C108.7 119.761 109.211 119.762 109.246 119.634C109.624 119.184 110.135 119.185 110.884 119.251C111.906 119.253 112.963 119.126 113.411 118.419C113.481 118.162 113.278 117.968 112.802 117.839C112.088 117.645 111.577 117.644 110.863 117.449C110.59 117.513 110.282 117.706 110.009 117.77C109.12 118.218 107.86 118.152 106.432 117.763C106.194 117.698 105.718 117.569 105.445 117.633C105.172 117.696 105.137 117.825 104.829 118.017C104.794 118.146 104.794 118.146 104.759 118.275C104.521 118.21 104.521 118.21 104.283 118.145C103.401 117.629 102.617 117.692 101.798 117.883C101.525 117.947 101.49 118.076 101.217 118.14C100.944 118.203 100.909 118.332 100.671 118.267C99.1725 118.136 98.6895 118.971 97.6324 119.098L97.5625 119.355C97.5625 119.355 98.0035 119.613 98.0385 119.485C98.5495 119.486 99.0606 119.487 99.3686 119.294C99.6416 119.23 99.9146 119.167 100.188 119.103C100.594 119.489 101.035 119.748 101.203 120.07C100.146 120.196 98.8856 120.13 98.0316 120.45C98.2696 120.515 97.7586 120.514 97.5205 120.449C96.7365 120.512 95.9524 120.575 95.2034 120.509C94.6923 120.508 94.3843 120.701 93.7053 120.378L93.1942 120.377C92.8862 120.569 92.5432 120.89 92.2352 121.083C91.9622 121.146 91.4862 121.017 91.2131 121.081C90.6671 121.208 90.5971 121.466 90.2891 121.658C89.8131 121.529 89.302 121.528 89.029 121.591C89.099 121.334 88.931 121.012 89.239 120.82C89.617 120.37 89.2459 119.855 88.6718 119.146C88.3008 118.631 87.8947 118.244 87.5236 117.729C87.0476 117.599 86.5716 117.47 86.2636 117.662C85.6825 117.918 85.1015 118.175 84.2825 118.366C83.5684 118.172 83.7084 117.657 83.2673 117.399C82.7913 117.27 82.3153 117.14 81.6012 116.946C81.5031 116.367 81.1321 115.851 81.9861 115.531C82.2591 115.468 82.0561 115.274 82.3291 115.21C81.685 114.759 80.936 114.693 80.4599 114.564C80.2569 114.37 80.0539 114.177 79.8509 113.983C79.5498 113.211 78.3596 112.887 77.3726 112.757C76.6235 112.691 75.6714 112.432 74.9574 112.238C74.4813 112.108 73.7323 112.042 73.4593 112.106C72.6402 112.298 71.8562 112.361 71.4782 112.81C71.1352 113.131 70.0781 113.258 69.5321 113.386C68.104 112.997 68.0409 112.289 67.1588 111.773C67.6699 111.774 68.2159 111.646 68.4889 111.583C68.5589 111.325 68.3908 111.003 69.1749 110.94C69.4479 110.877 69.4829 110.748 69.3149 110.426C69.1468 110.104 68.9088 110.039 68.4328 109.91C67.9567 109.78 67.6837 109.844 67.2077 109.715C66.2206 109.584 65.6746 109.712 65.0935 109.968C64.7855 110.16 64.5125 110.224 64.2395 110.288C63.6935 110.416 63.6235 110.673 63.0425 110.929C62.5314 110.928 62.0554 110.799 61.3063 110.733C61.1664 111.248 60.3473 111.439 59.3603 111.309C58.8842 111.179 58.6112 111.243 58.1002 111.242C56.8401 111.175 56.5671 111.239 56.1191 111.946C56.5251 112.333 56.9662 112.591 57.6103 113.042C57.2673 113.363 57.1623 113.749 56.8543 113.942C57.2603 114.328 57.7014 114.587 58.1424 114.845C58.5835 115.103 59.2625 115.426 59.7036 115.684C60.3827 116.007 60.8587 116.136 61.7758 116.524C61.9788 116.717 62.1819 116.911 62.4199 116.976C62.6229 117.169 62.8609 117.234 63.0639 117.427C62.994 117.684 62.924 117.941 63.092 118.263C62.1049 118.133 61.1529 117.874 60.5438 117.294C60.5438 117.294 60.3408 117.1 60.1027 117.036C59.3537 116.97 58.9476 116.583 58.5415 116.196C58.3385 116.003 57.8625 115.874 57.6595 115.68C56.9454 115.486 56.2663 115.163 55.5523 114.969C55.3142 114.904 55.0762 114.839 54.8382 114.774C54.0891 114.709 53.4101 114.386 52.696 114.192C52.22 114.062 52.0169 113.869 51.6109 113.482C51.6809 113.225 51.9889 113.032 52.0239 112.904C52.0589 112.775 51.6178 112.517 51.4148 112.324C51.4498 112.195 51.6878 112.26 51.7228 112.131C52.2688 112.003 52.5418 111.94 52.1708 111.424C51.8978 111.488 51.7297 111.166 51.7997 110.909C51.9397 110.394 52.2827 110.073 52.4226 109.559C52.2196 109.366 51.5405 109.043 51.6455 108.657C51.6805 108.528 51.4775 108.335 51.2395 108.27C50.5604 107.947 50.1543 107.561 49.9863 107.239C49.7833 107.045 49.5803 106.852 49.3072 106.916C48.8312 106.786 48.7612 107.043 48.7262 107.172C48.6912 107.301 48.6212 107.558 48.8243 107.751C48.7893 107.88 48.7543 108.008 48.9223 108.33C47.6622 108.264 47.0181 107.812 46.1361 107.296C45.695 107.038 45.527 106.716 45.1209 106.329C45.2259 105.943 45.2259 105.943 44.4138 105.17C42.8807 105.167 41.3476 105.164 39.7795 105.29C39.5414 105.225 39.1004 104.967 38.8624 104.902C37.9453 104.515 37.6723 104.579 37.0912 104.835C37.0563 104.963 36.7832 105.027 36.7483 105.156C36.0342 104.962 35.0821 104.703 34.4311 105.216C34.2631 104.894 34.2981 104.765 34.2981 104.765C34.676 104.316 34.851 103.673 35.7051 103.353C35.9781 103.289 36.0131 103.16 36.0481 103.032C36.6991 102.518 36.839 102.004 36.538 101.231C36.6079 100.974 36.1669 100.716 35.9988 100.394C36.4118 99.8156 37.0279 99.4308 37.8819 99.1106C38.4629 98.8544 39.0789 98.4695 39.4219 98.1484C39.7999 97.6988 40.1429 97.3777 40.9619 97.1862C41.235 97.1224 41.543 96.9299 41.613 96.6727C41.9909 96.2231 41.4169 95.5144 41.5568 95C41.6268 94.7428 41.2208 94.356 40.5767 93.9045L40.3736 93.7112C40.3106 93.0034 40.6886 92.5537 41.1016 91.9755C41.1716 91.7183 41.7176 91.5906 42.2286 91.5915C42.7396 91.5924 43.2507 91.5934 44.0347 91.5305C45.3298 91.4685 46.1839 91.1484 46.3938 90.3767C46.4288 90.2481 46.4288 90.2481 46.4638 90.1195C46.4638 90.1195 46.4638 90.1195 46.4988 89.9909C46.0577 89.7328 45.6517 89.3461 45.2106 89.0879C45.7916 88.8316 46.3377 88.704 46.6457 88.5115C46.7507 88.1257 46.0366 87.9314 45.8686 87.6095C45.9035 87.4808 46.1416 87.5456 46.1766 87.417L46.1416 87.5456C46.4146 87.4818 46.8906 87.6113 47.1287 87.6761C47.3667 87.7408 47.3667 87.7408 47.6047 87.8056C47.6397 87.677 47.6397 87.677 47.6747 87.5484C48.0177 87.2274 48.6968 87.5503 49.0398 87.2292C49.0748 87.1006 49.1447 86.8434 48.7037 86.5853C48.0246 86.2624 47.5136 86.2614 46.7645 86.1957C46.4915 86.2596 46.4915 86.2596 46.2185 86.3234C45.6025 86.7083 44.7484 87.0284 44.1674 87.2847C43.5864 87.541 42.8023 87.6039 42.0183 87.6668C41.5073 87.6659 41.0312 87.5363 40.5902 87.2782C40.3522 87.2134 40.3172 87.342 40.0792 87.2773L39.8761 87.0839C40.2891 86.5057 39.68 85.9256 39.582 85.3464C39.855 85.2825 39.855 85.2825 40.128 85.2187C40.639 85.2196 40.471 84.8977 40.541 84.6405C41.052 84.6414 41.5281 84.7709 41.8711 84.4499C41.8711 84.4499 42.1091 84.5146 42.1441 84.386C42.1441 84.386 42.1441 84.386 41.9061 84.3213C41.9061 84.3213 41.871 84.4499 41.633 84.3851C41.395 84.3203 41.192 84.127 40.954 84.0622C41.227 83.9984 41.5 83.9345 41.773 83.8707C42.046 83.8068 42.081 83.6782 42.151 83.421C42.221 83.1638 42.326 82.778 43.075 82.8437C43.348 82.7799 43.6211 82.716 43.6561 82.5874C43.488 82.2655 43.32 81.9435 42.9139 81.5568C42.9139 81.5568 43.1519 81.6215 43.1869 81.4929L43.1519 81.6215C42.9139 81.5568 42.9139 81.5568 42.7109 81.3634C42.5079 81.17 42.2698 81.1053 41.9618 81.2977C41.9618 81.2977 41.7238 81.2329 41.6888 81.3615C41.7238 81.2329 42.0318 81.0405 42.0668 80.9119C42.3398 80.848 42.6128 80.7842 42.6478 80.6556C42.3117 80.0117 42.3117 80.0117 42.8928 79.7554C43.2008 79.5629 43.3058 79.1771 43.8168 79.1781C44.0898 79.1142 43.7187 78.5989 43.4457 78.6627C42.9347 78.6618 42.2556 78.3389 42.0526 78.1455C42.0876 78.0169 42.1576 77.7597 42.1926 77.6311C42.4306 77.6959 42.4306 77.6959 42.6686 77.7606C43.1097 78.0188 43.5507 78.2769 44.1317 78.0206C44.1667 77.892 43.9287 77.8273 43.9987 77.5701C44.5097 77.571 45.0208 77.5719 45.7698 77.6376C45.8748 77.2518 45.4338 76.9937 45.2307 76.8003C45.2657 76.6717 45.3357 76.4145 45.3707 76.2859C45.4057 76.1573 45.6437 76.222 45.6437 76.222C46.4278 76.1591 46.8057 75.7095 46.9457 75.1951C47.0157 74.9379 46.3366 74.615 46.0636 74.6788C45.2446 74.8703 44.0545 74.5465 43.0674 74.416C42.5564 74.4151 42.3814 75.0581 41.1913 74.7343C41.3313 74.2199 41.6743 73.8988 42.6963 73.9007C42.5983 73.3215 41.0652 73.3187 41.2052 72.8043C41.9542 72.87 42.6683 73.0643 43.0743 73.451C43.2773 73.6444 43.7534 73.7739 43.8234 73.5167C43.6204 73.3234 43.4173 73.13 43.2493 72.808C43.0463 72.6147 43.0812 72.4861 42.8432 72.4213C41.6531 72.0975 41.114 71.2602 39.9589 70.8077C39.7209 70.743 39.5529 70.421 39.8259 70.3571C40.3369 70.3581 40.6099 70.2942 40.9529 69.9732C40.9879 69.8446 41.2959 69.6521 41.5689 69.5883C40.4838 68.8787 39.1607 68.1043 37.7325 67.7157C37.4945 67.6509 37.2565 67.5861 36.9835 67.65C36.1994 67.7129 35.1774 67.711 34.4283 67.6453C34.1553 67.7092 33.9173 67.6444 33.6443 67.7083C32.8252 67.8998 32.1112 67.7055 31.5021 67.1254C31.299 66.932 30.893 66.5453 30.4869 66.1585C30.5219 66.0299 30.5919 65.7727 30.8999 65.5803C30.6969 65.3869 30.4589 65.3222 30.2558 65.1288C28.3097 65.7042 26.3287 66.4083 24.1446 66.919C23.7385 66.5323 23.3324 66.1456 22.9264 65.7588C22.3804 65.8865 21.5963 65.9494 21.3233 66.0132C21.0853 65.9485 21.0853 65.9485 20.8472 65.8837C20.4412 65.497 20.2382 65.3036 19.8321 64.9169C19.4261 64.5301 18.88 64.6578 18.474 64.2711C18.2709 64.0777 17.5219 64.012 17.0808 63.7539C16.9128 63.4319 17.2208 63.2395 17.3258 62.8537C17.3958 62.5964 17.7038 62.404 17.7737 62.1468C17.9137 61.6324 18.2567 61.3113 19.0758 61.1198C20.0698 60.2853 21.6729 60.0309 23.0729 59.5831C23.346 59.5192 23.6189 59.4554 23.6889 59.1982C23.8289 58.6838 24.1719 58.3627 24.991 58.1712C24.991 58.1712 25.026 58.0426 25.264 58.1074C25.845 57.8511 25.712 57.4005 25.0329 57.0776C24.7949 57.0129 24.5918 56.8195 24.3538 56.7547C24.3888 56.6261 24.6268 56.6909 24.6618 56.5623C24.5288 56.1117 24.6337 55.7259 24.9417 55.5335C24.5707 55.0181 23.9616 54.438 23.5905 53.9227C22.8765 53.7284 22.1624 53.5341 21.2803 53.0178C21.3153 52.8892 21.3503 52.7606 21.6233 52.6968C21.8963 52.6329 22.4424 52.5053 22.7154 52.4414C23.2614 52.3137 23.5694 52.1213 23.6394 51.8641C23.4364 51.6707 23.2333 51.4774 22.7923 51.2192C23.1003 51.0268 23.3733 50.963 23.4083 50.8343C23.4783 50.5771 22.6312 49.9323 22.1551 49.8027C21.9171 49.738 21.6791 49.6732 21.6441 49.8018C21.0631 50.0581 20.111 49.799 19.4319 49.4761C18.9909 49.218 18.2768 49.0237 17.8358 48.7656C17.5628 48.8294 17.0517 48.8285 16.7787 48.8923C16.0996 48.5694 15.9316 48.2474 15.7286 48.0541C15.7985 47.7969 16.2746 47.9264 16.5476 47.8626C17.3667 47.6711 17.9477 47.4148 19.1378 47.7386C19.3758 47.8034 19.6488 47.7395 19.9218 47.6757C20.4678 47.548 20.9789 47.5489 21.5249 47.4213C21.7979 47.3574 22.1059 47.165 22.3789 47.1011C22.4839 46.7153 21.4968 46.5849 22.0779 46.3286C21.8398 46.2638 21.8749 46.1352 21.6368 46.0705C20.9228 45.8762 20.1737 45.8105 19.6277 45.9382C18.3326 46.0001 17.2755 46.1269 15.8124 45.8669C14.3493 45.6069 13.0542 45.6689 11.7241 45.8595C11.2131 45.8586 10.7021 45.8576 10.191 45.8567C9.44197 45.791 8.96593 45.6615 8.21688 45.5958C7.70584 45.5949 7.46782 45.5301 6.99179 45.4006C7.02678 45.272 7.29979 45.2081 7.06177 45.1434C6.45269 44.5633 6.3896 43.8555 5.26949 43.2744C4.55543 43.0801 3.84137 42.8858 3.49837 43.2069C3.15538 43.5279 3.08539 43.7851 3.8975 44.5586C3.38647 44.5577 3.11346 44.6215 2.7074 44.2348C2.50437 44.0414 2.30135 43.848 2.06333 43.7833C1.8603 43.5899 1.65727 43.3965 1.45422 43.2032C1.5242 42.946 1.59419 42.6888 1.66417 42.4316C1.73416 42.1743 1.80417 41.9171 1.39812 41.5304C1.19509 41.337 1.23006 41.2084 1.02703 41.0151C0.690964 40.3711 0.592914 39.7919 0.767879 39.1489C1.25085 38.3135 1.73385 37.478 2.41984 36.8359C3.14083 36.0652 3.58878 35.3584 4.07175 34.5229C4.41475 34.2019 4.75777 33.8808 5.10077 33.5598C6.02479 32.9825 6.71078 32.3404 7.6348 31.763C8.3208 31.121 9.48283 30.6084 10.1338 30.0949C11.3659 29.3252 13.004 28.9421 14.439 28.3657C15.328 27.917 16.4551 27.5331 17.1061 27.0196C18.0301 26.4422 19.3952 26.1231 20.5222 25.7391C21.8873 25.4199 22.7763 24.9712 23.7004 24.3939C23.7354 24.2653 23.9734 24.33 24.0084 24.2014C24.4563 23.4946 24.4563 23.4946 25.3104 23.1745C25.3454 23.0459 25.1423 22.8525 25.1423 22.8525C24.9743 22.5305 25.0443 22.2733 25.5903 22.1456C26.1363 22.0179 26.7174 21.7617 27.0604 21.4406C27.3684 21.2482 27.4034 21.1196 27.2353 20.7976C27.0673 20.4756 27.3753 20.2832 27.6483 20.2194C28.1943 20.0917 28.5023 19.8992 29.0484 19.7716C30.1404 19.5162 31.4705 19.3256 32.7306 19.3922C32.9686 19.457 33.0036 19.3284 33.2416 19.3932C34.2287 19.5236 35.0477 19.3321 35.8318 19.2692C36.6508 19.0777 37.6729 19.0795 38.4919 18.888C39.822 18.6974 41.1171 18.6355 42.0061 18.1867C43.2662 18.2534 43.8822 17.8685 44.9393 17.7417C45.9964 17.615 46.8154 17.4235 47.6345 17.2319C48.9995 16.9128 50.3646 16.5936 51.7297 16.2744C52.8217 16.019 54.1518 15.8284 55.2788 15.4445C55.5868 15.252 56.3009 15.4463 56.6439 15.1253C56.9519 14.9329 57.4979 14.8052 58.044 14.6775C58.59 14.5498 58.898 14.3574 59.444 14.2297C59.717 14.1659 59.99 14.102 60.2631 14.0382C61.5931 13.8476 62.4822 13.3989 63.5742 13.1435C66.0033 11.7326 68.8665 11.5448 71.3236 10.9703C72.9267 10.7158 74.5298 10.4614 76.1329 10.207C76.4759 9.88595 77.4279 10.145 78.009 9.88874C78.352 9.5677 79.339 9.69815 79.8851 9.57047C80.4311 9.4428 81.2152 9.37988 81.7612 9.2522C82.3072 9.12453 82.8532 8.99685 83.1612 8.80442C84.0503 8.35569 85.1423 8.10034 86.1994 7.9736C87.8025 7.71917 89.1675 7.39998 90.7356 7.27415C90.8756 6.75974 91.2186 6.4387 92.0027 6.37579C93.6058 6.12136 95.2438 5.73834 96.8469 5.48392C97.0849 5.54868 97.1199 5.42008 97.358 5.48484C98.961 5.23041 100.802 5.04076 102.405 4.78634C103.735 4.59575 105.065 4.40517 106.36 4.34318C106.837 4.47271 106.907 4.21551 107.18 4.15166C107.383 4.34504 107.383 4.34504 107.656 4.28119C107.691 4.15259 107.691 4.1526 107.726 4.02399C109.602 3.70573 111.443 3.51606 113.557 3.26256C115.944 2.94523 118.128 2.43454 120.718 2.31056C121.229 2.3115 121.81 2.05521 122.356 1.92754C122.902 1.79985 123.175 1.73602 123.686 1.73695C124.232 1.60927 124.982 1.67496 125.766 1.61205C127.369 1.35763 129.175 1.29658 131.016 1.10691C132.584 0.981096 134.187 0.726667 135.755 0.600848C136.812 0.474098 137.869 0.347343 139.129 0.413967C139.64 0.414902 140.39 0.480588 140.901 0.481508C141.174 0.417678 141.65 0.547212 141.685 0.418602C142.028 0.097568 142.504 0.227098 143.015 0.228018C144.037 0.229877 144.037 0.229873 144.338 1.00243C144.03 1.19486 143.519 1.19394 143.211 1.38638C142.63 1.64266 141.881 1.57696 140.929 1.3179C140.691 1.25314 140.215 1.12361 139.942 1.18745C138.611 1.37803 137.554 1.50478 136.462 1.76013C136.462 1.76013 136.462 1.76013 136.189 1.82396C136.119 2.08117 136.084 2.20978 136.252 2.53175C136.49 2.59651 136.49 2.59651 136.728 2.66128C138.773 2.66499 140.579 2.60394 142.623 2.60765C143.918 2.54567 145.143 2.74088 146.438 2.6789C147.46 2.68075 148.482 2.68261 149.504 2.68446C150.015 2.68538 150.253 2.75017 150.764 2.75109C150.729 2.8797 150.729 2.87968 150.694 3.00829C150.659 3.13689 150.624 3.26549 150.862 3.33026C151.065 3.52363 151.303 3.5884 151.542 3.65316C151.78 3.71793 152.053 3.65409 152.291 3.71885C153.551 3.78547 154.573 3.78733 155.931 4.43313C155.966 4.30452 156.274 4.11208 156.309 3.98347C158.08 4.05103 159.851 4.11857 161.895 4.12228C162.168 4.05844 162.644 4.18797 163.12 4.3175C163.596 4.44703 163.799 4.64041 164.275 4.76993C164.513 4.8347 165.025 4.83562 165.501 4.96515C165.228 5.029 165.193 5.1576 165.158 5.2862C164.85 5.47864 164.577 5.54248 164.745 5.86445C164.948 6.05783 164.878 6.31504 164.605 6.37888C163.786 6.57038 163.954 6.89235 164.087 7.34293C164.052 7.47153 164.017 7.60013 164.22 7.79351C164.626 8.18025 165.34 8.37453 166.019 8.69743C166.257 8.76219 166.495 8.82696 166.768 8.76313C167.517 8.82881 168.028 8.82974 168.574 8.70206C168.812 8.76683 169.323 8.76776 169.561 8.83253C170.037 8.96206 170.037 8.96206 170.373 9.606C169.554 9.79752 168.973 10.0538 169.309 10.6977C169.645 11.3417 169.981 11.9856 171.444 12.2456C170.66 12.3085 170.387 12.3724 170.079 12.5648C169.498 12.8211 169.631 13.2717 170.346 13.466C171.06 13.6602 172.012 13.9193 172.796 13.8564C173.545 13.9221 174.091 13.7944 174.875 13.7315C175.113 13.7963 175.351 13.861 175.792 14.1192C175.757 14.2478 175.995 14.3125 175.995 14.3125C175.617 14.7622 175.512 15.148 175.134 15.5977C176.051 15.9853 176.422 16.5007 176.52 17.0798C176.485 17.2084 176.415 17.4656 176.177 17.4009C175.631 17.5285 175.526 17.9144 175.421 18.3002C175.624 18.4935 175.827 18.6869 176.03 18.8803C178.242 19.206 180.252 19.3383 182.296 19.342C182.807 19.3429 183.591 19.28 184.102 19.2809C184.305 19.4743 184.27 19.6029 184.032 19.5381C183.521 19.5372 183.248 19.601 182.737 19.6001C181.953 19.663 181.407 19.7907 181.302 20.1765C181.505 20.3699 181.673 20.6918 181.876 20.8852C181.841 21.0138 181.771 21.271 181.498 21.3349C180.952 21.4625 180.882 21.7197 181.05 22.0417C181.015 22.1703 180.98 22.2989 180.945 22.4275C180.434 22.4266 179.888 22.5543 179.615 22.6181C179.104 22.6172 178.796 22.8096 178.726 23.0668C178.656 23.324 178.859 23.5174 179.265 23.9041C180.014 23.9698 180.763 24.0355 181.106 23.7145C181.449 23.3934 182.233 23.3305 182.947 23.5248C183.899 23.7839 184.48 23.5276 184.823 23.2066C185.334 23.2075 185.572 23.2723 186.083 23.2732C186.559 23.4027 186.832 23.3389 187.378 23.2112C187.924 23.0835 188.435 23.0845 189.185 23.1501C190.991 23.0891 192.762 23.1566 194.568 23.0956C195.079 23.0965 195.387 22.9041 195.898 22.905C196.409 22.9059 196.717 22.7135 197.158 22.9716C197.396 23.0364 197.669 22.9725 197.669 22.9725C198.558 22.5238 200.056 22.6552 201.113 22.5285C202.954 22.3388 204.761 22.2777 206.567 22.2167C207.078 22.2176 207.624 22.0899 208.17 21.9623C208.443 21.8984 208.989 21.7707 209.262 21.7069C209.535 21.6431 209.773 21.7078 209.843 21.4506C209.878 21.322 210.151 21.2582 210.389 21.3229C211.138 21.3886 212.125 21.5191 213.112 21.6496C214.099 21.78 214.848 21.8457 215.632 21.7828C216.143 21.7837 216.689 21.6561 217.403 21.8504C217.368 21.9789 217.333 22.1076 217.025 22.3C218.383 22.9458 219.504 23.5268 221.072 23.401C221.275 23.5944 221.716 23.8525 221.919 24.0459C222.395 24.1754 222.906 24.1763 223.179 24.1125C223.452 24.0487 223.928 24.1782 224.131 24.3716C224.572 24.6297 224.81 24.6945 225.321 24.6954C226.07 24.7611 226.581 24.762 227.26 25.0849C227.666 25.4716 227.596 25.7288 227.288 25.9213C226.91 26.3709 226.805 26.7567 227.141 27.4007C227.309 27.7227 227.239 27.9799 226.896 28.3009C226.245 28.8144 226.448 29.0078 227.296 29.6526C227.499 29.846 227.94 30.1041 228.213 30.0403C228.689 30.1698 229.2 30.1708 229.473 30.1069C229.711 30.1717 229.984 30.1079 230.257 30.044C231.79 30.0468 231.958 30.3688 232.329 30.8841C232.021 31.0765 232.021 31.0766 232.224 31.2699C233.582 31.9157 234.772 32.2395 236.102 32.049C236.375 31.9851 236.613 32.0499 236.851 32.1146C237.804 32.3737 238.553 32.4394 239.54 32.5699C240.8 32.6365 241.752 32.8955 242.564 33.669C243.005 33.9271 243.208 34.1205 243.922 34.3148C244.398 34.4443 244.566 34.7663 244.258 34.9588C243.915 35.2798 243.334 35.5361 242.788 35.6638C242.48 35.8562 242.41 36.1134 242.578 36.4354C242.746 36.7573 242.676 37.0146 242.606 37.2718C242.704 37.8509 243.11 38.2377 244.062 38.4967C245.014 38.7558 245.764 38.8215 246.716 39.0806C247.192 39.2101 247.43 39.2748 247.906 39.4044C248.585 39.7273 249.537 39.9863 250.251 40.1806C250.489 40.2454 250.965 40.3749 251.406 40.6331C252.253 41.2779 253.17 41.6656 253.744 42.3743C254.15 42.761 254.556 43.1478 255.271 43.3421C255.509 43.4068 255.712 43.6002 255.915 43.7936C256.216 44.5661 255.838 45.0158 255.019 45.2073C254.711 45.3997 254.403 45.5922 254.095 45.7846C253.787 45.977 253.241 46.1047 252.73 46.1038C252.184 46.2315 251.876 46.4239 251.498 46.8736C252.926 47.2622 254.284 47.9079 255.649 47.5888C256.125 47.7183 256.328 47.9117 256.566 47.9764C256.496 48.2336 256.461 48.3622 256.426 48.4908C256.321 48.8766 255.978 49.1977 256.111 49.6483C256.244 50.0988 255.936 50.2913 255.593 50.6123C254.123 51.3173 252.45 51.829 250.98 52.534C250.672 52.7264 249.923 52.6607 249.615 52.8531C249.069 52.9808 248.999 53.238 249.678 53.5609C249.881 53.7543 250.357 53.8838 250.595 53.9486C252.163 53.8228 252.919 52.9235 254.69 52.991C254.858 53.313 255.264 53.6997 255.432 54.0217C255.705 53.9579 255.943 54.0226 256.216 53.9588C257.308 53.7034 258.162 53.3833 259.22 53.2566C259.766 53.1289 260.074 52.9365 259.941 52.4859C260.011 52.2287 260.046 52.1001 260.115 51.8429C260.15 51.7143 260.185 51.5857 259.982 51.3923C259.814 51.0703 260.087 51.0065 260.395 50.814C260.668 50.7502 261.144 50.8797 261.348 51.0731C261.754 51.4598 262.195 51.718 262.601 52.1047C262.223 52.5544 262.594 53.0697 261.978 53.4546C261.943 53.5832 261.873 53.8404 262.076 54.0338C262.447 54.5491 262.307 55.0635 261.964 55.3846C261.964 55.3846 261.964 55.3846 261.929 55.5132C262.573 55.9647 262.23 56.2857 262.601 56.801C262.839 56.8658 263.042 57.0592 263.28 57.1239C264.638 57.7697 264.638 57.7697 265.968 57.5792C266.136 57.9011 265.863 57.965 265.59 58.0288C264.771 58.2203 264.225 58.348 263.406 58.5395C262.041 58.8587 260.676 59.1779 259.073 59.4323C257.435 59.8153 255.832 60.0698 254.432 60.5176C254.159 60.5814 254.124 60.71 254.124 60.71C254.089 60.8386 254.327 60.9034 254.565 60.9681C255.041 61.0977 255.517 61.2272 256.028 61.2281C256.266 61.2929 256.742 61.4224 257.015 61.3586C257.218 61.552 257.218 61.5519 257.183 61.6806C257.386 61.8739 257.589 62.0673 257.792 62.2607C258.233 62.5188 258.744 62.5197 259.017 62.4559C259.563 62.3282 259.871 62.1358 260.417 62.0081C260.725 61.8156 261.236 61.8166 261.544 61.6241C262.363 61.4326 263.147 61.3697 263.966 61.1782C264.785 60.9867 265.163 60.537 265.745 60.2808C266.053 60.0883 266.361 59.8959 267.075 60.0902C267.754 60.4131 267.922 60.735 267.852 60.9922C267.782 61.2494 267.509 61.3133 266.998 61.3124C266.452 61.44 265.906 61.5677 265.36 61.6954C264.541 61.8869 263.925 62.2718 262.937 62.1413C262.664 62.2052 262.391 62.269 262.118 62.3328C261.845 62.3967 261.572 62.4605 261.299 62.5244C260.312 62.3939 259.969 62.7149 259.388 62.9712C258.842 63.0989 258.737 63.4847 259.143 63.8714C259.311 64.1934 259.717 64.5802 260.123 64.9669C260.53 65.3536 261.006 65.4832 261.72 65.6774C262.091 66.1928 261.986 66.5786 261.643 66.8996C261.3 67.2207 260.684 67.6056 259.697 67.4751C259.186 67.4742 258.913 67.538 258.402 67.5371C257.344 67.6638 256.56 67.7268 255.37 67.4029C255.132 67.3382 254.859 67.402 254.621 67.3372C252.815 67.3983 251.009 67.4594 249.203 67.5204C248.181 67.5186 247.362 67.7101 246.34 67.7082C244.023 67.7683 241.908 68.0218 239.794 68.2753C238.737 68.4021 237.68 68.5288 236.791 68.9776C236.518 69.0414 236.483 69.17 236.413 69.4272C237.568 69.8796 238.758 70.2035 239.85 69.9481C240.635 69.8852 241.216 69.6289 242.133 70.0166C241.86 70.0804 241.314 70.2081 241.041 70.2719C240.257 70.3348 239.437 70.5264 238.653 70.5893C237.323 70.7798 236.196 71.1638 234.866 71.3544C233.809 71.4811 232.955 71.8013 232.101 72.1214C231.52 72.3777 230.939 72.6339 230.155 72.6968C229.609 72.8245 229.609 72.8245 229.231 73.2742C229.434 73.4675 229.672 73.5323 230.183 73.5332C231.989 73.4722 233.83 73.2825 235.468 72.8995C236.287 72.708 237.071 72.6451 237.652 72.3888C237.926 72.3249 238.199 72.2611 238.437 72.3259C239.459 72.3277 240.278 72.1362 241.335 72.0095C242.665 71.8189 243.757 71.5635 245.29 71.5663C245.493 71.7597 245.22 71.8235 245.22 71.8235C244.128 72.0789 243.036 72.3342 241.944 72.5896C241.671 72.6534 241.398 72.7172 240.887 72.7163C239.592 72.7783 238.5 73.0337 237.814 73.6757C237.779 73.8043 237.233 73.932 236.96 73.9959C236.925 74.1245 236.89 74.2531 236.617 74.3169C236.785 74.6389 237.296 74.6398 237.569 74.576C238.353 74.5131 239.172 74.3215 239.718 74.1939C240.299 73.9376 241.083 73.8747 241.832 73.9404C242.343 73.9413 242.889 73.8136 243.4 73.8145C243.673 73.7507 243.911 73.8155 244.387 73.945C244.044 74.2661 243.26 74.329 242.952 74.5214C242.406 74.6491 241.86 74.7768 241.755 75.1626C241.958 75.3559 242.196 75.4207 242.469 75.3569C242.98 75.3578 243.253 75.294 243.526 75.2301C244.31 75.1672 245.129 74.9757 246.151 74.9775C246.662 74.9785 246.935 74.9146 247.481 74.787C248.538 74.6602 249.357 74.4687 250.176 74.2772C252.018 74.0875 253.418 73.6397 255.259 73.4501C255.532 73.3862 256.078 73.2586 256.554 73.3881C256.792 73.4528 257.03 73.5176 256.995 73.6462C257.198 73.8396 257.163 73.9682 257.128 74.0968C257.093 74.2254 256.82 74.2892 256.547 74.3531C254.944 74.6075 253.747 75.2487 252.144 75.5031C251.598 75.6308 251.052 75.7584 250.709 76.0795C250.401 76.2719 249.855 76.3996 249.582 76.4634C249.036 76.5911 248.217 76.7826 247.432 76.8455C246.648 76.9084 246.305 77.2295 246.165 77.7439C246.368 77.9373 246.81 78.1954 247.013 78.3888C247.251 78.4535 247.251 78.4535 247.524 78.3897C249.946 77.9438 252.333 77.6264 254.755 77.1805C255.028 77.1167 255.266 77.1814 255.539 77.1176C256.323 77.0547 256.561 77.1194 257.135 77.8281C255.497 78.2112 254.097 78.659 253.306 79.6869C253.544 79.7516 253.782 79.8164 253.782 79.8164C255.28 79.9478 256.372 79.6924 257.667 79.6304C258.451 79.5675 258.997 79.4399 259.747 79.5055C259.642 79.8914 258.619 79.8895 258.311 80.0819C257.184 80.4659 255.854 80.6565 254.93 81.2338C254.622 81.4262 254.076 81.5539 253.803 81.6178C252.984 81.8093 252.165 82.0008 252.228 82.7086C252.158 82.9658 252.088 83.223 252.018 83.4802C252.592 84.1889 253.544 84.448 254.567 84.4498C255.589 84.4517 256.576 84.5821 257.528 84.8412C258.004 84.9707 258.515 84.9716 259.026 84.9726C259.81 84.9097 260.762 85.1687 261.371 85.7488C261.812 86.007 262.218 86.3937 262.421 86.5871C262.827 86.9738 263.268 87.2319 263.674 87.6187C264.185 87.6196 264.423 87.6844 264.696 87.6205C265.242 87.4929 265.957 87.6872 266.636 88.0101C266.328 88.2025 266.258 88.4597 265.95 88.6521C266.321 89.1675 266.692 89.6828 266.552 90.1972C266.482 90.4544 266.685 90.6478 266.853 90.9698C266.986 91.4204 266.881 91.8062 266.335 91.9339C264.291 91.9301 263.948 92.2512 263.913 92.3798C263.605 92.5722 263.976 93.0876 264.452 93.2171C264.928 93.3466 265.439 93.3476 265.712 93.2837C266.461 93.3494 267.007 93.2217 267.756 93.2874C268.54 93.2245 269.289 93.2902 270.003 93.4845C270.717 93.6788 271.431 93.8731 271.564 94.3237C271.732 94.6456 272.482 94.7113 272.888 95.0981C272.545 95.4191 272.202 95.7402 271.656 95.8678C270.837 96.0593 270.255 96.3156 270.354 96.8948C270.795 97.1529 271.201 97.5397 271.642 97.7978C272.559 98.1855 273.21 97.672 274.435 97.8672C273.889 97.9949 273.581 98.1873 273.273 98.3798L273.238 98.5084C273.301 99.2162 273.504 99.4095 274.694 99.7334C274.932 99.7981 275.17 99.8629 275.408 99.9276C275.646 99.9924 276.122 100.122 276.395 100.058C276.836 100.316 276.766 100.573 276.696 100.831C276.626 101.088 276.318 101.28 276.521 101.474C276.654 101.924 276.619 102.053 276.073 102.181C275.8 102.244 275.765 102.373 275.73 102.502C275.387 102.823 275.079 103.015 274.295 103.078C273.273 103.076 272.419 103.396 271.635 103.459C271.635 103.459 271.635 103.459 271.873 103.524C271.089 103.587 270.34 103.521 269.521 103.713C268.702 103.904 267.918 103.967 267.134 104.03C265.874 103.963 265.328 104.091 264.985 104.412C264.642 104.733 263.893 104.667 263.382 104.666C263.109 104.73 262.633 104.601 262.36 104.665C261.849 104.664 261.303 104.791 260.826 104.662C260.588 104.597 260.588 104.597 260.315 104.661C259.02 104.723 257.487 104.72 256.157 104.911C255.884 104.975 255.373 104.974 255.135 104.909C254.897 104.844 254.897 104.844 254.624 104.908C252.475 105.29 249.955 105.157 247.806 105.539C247.533 105.603 247.26 105.667 246.987 105.73C246.238 105.665 245.692 105.792 245.349 106.113C244.767 106.37 244.221 106.497 243.234 106.367C242.485 106.301 241.974 106.3 241.428 106.428C240.609 106.62 239.552 106.746 238.495 106.873C237.949 107.001 237.403 107.128 237.06 107.449C237.263 107.643 237.501 107.708 237.774 107.644C238.796 107.646 239.818 107.647 240.875 107.521C241.659 107.458 242.681 107.46 243.465 107.397C243.739 107.333 244.488 107.399 244.964 107.528C245.678 107.722 246.189 107.723 246.7 107.724C247.211 107.725 247.484 107.661 247.995 107.662C248.233 107.727 248.506 107.663 248.709 107.857C249.15 108.115 249.661 108.116 249.731 107.858C250.109 107.409 251.096 107.539 251.88 107.476C253 108.057 253.889 107.609 254.841 107.868C255.079 107.932 255.114 107.804 255.352 107.869C257.501 107.486 259.819 107.426 261.933 107.173C262.206 107.109 262.444 107.174 262.682 107.239C264.586 107.757 266.189 107.502 267.554 107.183C267.827 107.119 267.827 107.119 268.1 107.055C269.087 107.186 269.871 107.123 270.655 107.06C271.95 106.998 273.007 106.871 274.303 106.809C275.087 106.746 275.871 106.683 276.452 106.427C276.487 106.299 276.725 106.363 277.236 106.364C277.439 106.558 277.404 106.686 277.607 106.88C277.978 107.395 278.384 107.782 279.098 107.976C279.812 108.17 279.742 108.428 279.434 108.62C277.25 109.131 276.977 109.195 274.625 109.383C273.295 109.574 271.965 109.764 270.67 109.826C269.885 109.889 269.101 109.952 268.317 110.015C268.044 110.079 267.806 110.014 267.568 109.949C267.33 109.885 266.819 109.884 266.546 109.948C265.692 110.268 264.467 110.072 263.445 110.071C262.934 110.07 262.661 110.134 262.15 110.133C261.331 110.324 260.309 110.322 259.287 110.32C258.776 110.319 257.992 110.382 257.481 110.381C257.243 110.317 257.208 110.445 256.935 110.509C255.233 110.184 253.833 110.632 252.3 110.629C251.551 110.564 250.732 110.755 250.186 110.883C248.856 111.073 247.526 111.264 245.993 111.261C244.187 111.322 242.346 111.512 240.54 111.573C240.267 111.637 239.756 111.636 239.483 111.7C237.879 111.954 236.549 112.145 234.743 112.206C233.959 112.269 233.378 112.525 233 112.975C232.965 113.103 232.93 113.232 233.133 113.425C233.336 113.619 233.539 113.812 233.742 114.005C237.082 113.947 240.456 113.76 243.795 113.702C244.306 113.703 244.579 113.639 245.09 113.64C246.147 113.513 247.442 113.451 248.737 113.389C250.032 113.327 251.089 113.201 252.385 113.139C252.728 112.817 252.966 112.882 253.239 112.818C255.794 112.823 258.111 112.763 260.463 112.574C261.52 112.447 262.542 112.449 263.564 112.451C264.859 112.389 266.154 112.327 267.211 112.2C268.507 112.138 269.564 112.012 270.894 111.821C271.678 111.758 272.462 111.695 273.008 111.568C273.785 112.47 274.023 112.534 275.213 112.858C275.689 112.988 275.927 113.053 276.438 113.054C277.53 112.798 278.993 113.058 280.05 112.931C280.596 112.804 281.38 112.741 281.723 112.42C282.031 112.227 282.578 112.1 282.886 111.907C283.971 112.617 284.104 113.067 283.25 113.388C282.977 113.451 282.704 113.515 282.431 113.579C282.123 113.772 281.85 113.835 281.612 113.771C280.863 113.705 280.351 113.704 280.043 113.896C279.497 114.024 279.189 114.217 278.475 114.022C277.999 113.893 277.656 114.214 277.383 114.278C277.075 114.47 276.564 114.469 276.088 114.34C275.85 114.275 275.577 114.339 275.577 114.339C274.996 114.595 274.247 114.529 273.463 114.592C272.203 114.526 271.111 114.781 270.054 114.908C268.759 114.97 268.178 115.226 267.835 115.547C267.562 115.611 267.527 115.739 267.254 115.803C266.197 115.93 264.972 115.735 263.746 115.539C263.27 115.41 262.794 115.28 262.521 115.344C261.772 115.279 260.785 115.148 259.966 115.34C258.909 115.466 257.614 115.528 256.354 115.462C255.57 115.525 254.821 115.459 254.037 115.522C253.253 115.585 252.504 115.519 251.72 115.582C250.936 115.645 250.152 115.708 249.571 115.964C249.298 116.028 249.228 116.285 249.193 116.414C250.586 116.931 251.643 116.804 252.665 116.806C252.938 116.742 253.449 116.743 253.687 116.808C253.96 116.744 254.198 116.809 254.436 116.874C254.366 117.131 254.296 117.388 254.261 117.517C253.477 117.58 252.693 117.642 251.909 117.705C251.363 117.833 250.446 117.445 249.865 117.702C248.878 117.571 248.262 117.956 247.24 117.954C246.217 117.952 245.23 117.822 244.446 117.885C243.662 117.948 242.878 118.011 242.094 118.074C241.821 118.137 241.548 118.201 241.31 118.136C240.323 118.006 239.742 118.262 239.364 118.712C239.567 118.905 239.532 119.034 239.7 119.356C239.357 119.677 238.846 119.676 238.3 119.804C238.027 119.867 237.754 119.931 237.516 119.867C237.005 119.866 236.935 120.123 237.103 120.445C238.699 121.155 238.699 121.155 239.896 120.514C240.407 120.515 241.156 120.581 241.667 120.582ZM26.5237 53.4777L26.5587 53.3491L26.5237 53.4777C26.5237 53.4777 26.2857 53.4129 26.5237 53.4777C26.2507 53.5415 26.2507 53.5415 26.2507 53.5415L26.5237 53.4777ZM60.8653 110.475C61.3413 110.605 61.5794 110.669 62.0554 110.799C62.2934 110.864 62.5664 110.8 62.6014 110.671C62.6364 110.543 62.3984 110.478 62.1604 110.413C61.6843 110.284 61.2083 110.154 60.8653 110.475C60.6273 110.41 60.6273 110.41 60.5923 110.539C60.6273 110.41 60.8653 110.475 60.8653 110.475ZM259.654 54.4797C259.381 54.5435 259.143 54.4788 258.87 54.5426C257.778 54.798 256.959 54.9895 255.866 55.2448C254.501 55.564 253.339 56.0766 251.568 56.009C251.057 56.0081 250.476 56.2644 249.93 56.3921C249.657 56.4559 249.349 56.6483 249.076 56.7122C247.711 57.0314 246.381 57.2219 244.778 57.4764C244.505 57.5402 244.47 57.6688 244.162 57.8613C244.4 57.926 244.876 58.0556 244.876 58.0556C245.149 57.9917 245.422 57.9279 245.695 57.864C246.003 57.6716 246.276 57.6078 246.787 57.6087C247.298 57.6096 247.571 57.5458 248.082 57.5467C248.866 57.4838 249.65 57.4209 250.469 57.2294C250.847 56.7797 251.596 56.8454 252.38 56.7825C252.618 56.8473 252.891 56.7834 252.926 56.6548C254.837 56.208 256.749 55.7611 258.422 55.2495C258.695 55.1856 259.003 54.9932 259.311 54.8007C259.584 54.7369 259.619 54.6083 259.654 54.4797C259.654 54.4797 259.689 54.3511 259.654 54.4797C259.689 54.3511 259.654 54.4797 259.654 54.4797ZM177.683 21.2636C177.172 21.2627 176.899 21.3265 176.388 21.3256C175.911 21.1961 175.638 21.2599 175.365 21.3237C173.524 21.5134 171.515 21.3811 169.506 21.2488C169.268 21.184 168.995 21.2478 168.722 21.3117C168.176 21.4394 167.665 21.4384 167.119 21.5661C166.573 21.6938 166.573 21.6938 166.909 22.3377C167.147 22.4025 167.623 22.532 167.861 22.5968C168.099 22.6616 168.337 22.7263 168.372 22.5977C168.715 22.2767 169.702 22.4071 170.248 22.2794C172.292 22.2832 174.336 22.2869 176.381 22.2906C176.892 22.2915 177.165 22.2277 177.676 22.2286C177.949 22.1648 178.187 22.2295 178.46 22.1657C178.733 22.1018 178.768 21.9732 178.565 21.7799C178.124 21.5217 177.921 21.3284 177.683 21.2636ZM155.715 119.847C155.169 119.974 154.385 120.037 153.839 120.165C153.566 120.229 153.293 120.293 153.055 120.228C151.557 120.097 150.43 120.481 149.338 120.736C148.827 120.735 148.519 120.927 148.008 120.926C146.51 120.795 145.145 121.114 143.815 121.305C143.031 121.368 142.212 121.559 141.393 121.751C141.12 121.815 141.085 121.943 141.288 122.137C141.253 122.265 141.694 122.523 141.967 122.46C142.716 122.525 143.738 122.527 144.522 122.464C145.068 122.336 145.852 122.274 146.636 122.211C147.42 122.148 148.001 121.891 148.75 121.957C148.988 122.022 149.534 121.894 149.807 121.83C150.388 121.574 150.899 121.575 151.648 121.641C152.159 121.642 152.397 121.706 152.943 121.579C153.762 121.387 154.819 121.261 155.639 121.069C155.912 121.005 156.185 120.941 156.423 121.006C157.956 121.009 159.251 120.947 160.784 120.95C161.806 120.952 162.863 120.825 163.885 120.827C164.669 120.764 165.691 120.766 166.272 120.509C167.091 120.318 167.875 120.255 168.659 120.192C169.989 120.001 171.32 119.811 172.615 119.749C173.672 119.622 174.456 119.559 175.478 119.561C175.989 119.562 176.5 119.563 176.57 119.306C176.843 119.242 177.116 119.178 177.354 119.243C178.887 119.246 180.623 119.442 181.785 118.929C182.163 118.479 182.401 118.544 182.674 118.48C183.969 118.418 185.299 118.228 186.594 118.166C186.867 118.102 187.14 118.038 187.413 117.974C187.21 117.781 187.007 117.588 186.769 117.523C185.544 117.328 184.522 117.326 183.465 117.452C181.624 117.642 180.056 117.768 178.012 117.764C176.479 117.761 175.184 117.823 174.057 118.207C173.203 118.528 172.18 118.526 170.955 118.33C170.479 118.201 169.968 118.2 169.66 118.392C169.114 118.52 168.876 118.455 168.365 118.454C167.343 118.453 166.321 118.451 165.537 118.514C164.718 118.705 163.661 118.832 162.842 119.023C161.785 119.15 160.49 119.212 159.398 119.467C158.068 119.658 157.011 119.785 155.715 119.847ZM237.453 119.159C237.32 118.708 237.082 118.643 236.606 118.514C235.381 118.319 233.918 118.059 232.791 118.443C232.21 118.699 231.426 118.762 230.473 118.503C229.283 118.179 228.702 118.435 227.883 118.627C227.61 118.691 227.575 118.819 227.575 118.819C227.54 118.948 227.505 119.076 227.505 119.076C227.743 119.141 227.946 119.335 227.946 119.335C229.479 119.337 231.013 119.34 232.546 119.343C232.819 119.279 233.057 119.344 233.295 119.409C234.828 119.411 236.123 119.349 237.453 119.159ZM228.94 113.804C228.331 113.224 228.331 113.224 227.855 113.094C226.189 112.641 224.418 112.573 222.849 112.699C222.576 112.763 222.303 112.827 221.995 113.019C221.722 113.083 221.687 113.212 221.89 113.405C222.093 113.598 222.093 113.598 222.297 113.792C223.319 113.793 224.306 113.924 225.328 113.926C226.826 114.057 227.883 113.93 228.94 113.804ZM177.697 24.03C177.158 23.1926 177.158 23.1926 175.898 23.126C175.149 23.0603 174.399 22.9946 173.615 23.0576C172.831 23.1205 171.809 23.1186 171.025 23.1815C170.514 23.1806 170.206 23.373 170.409 23.5664C170.612 23.7598 171.053 24.0179 171.564 24.0188C171.802 24.0836 171.837 23.955 172.075 24.0198C172.586 24.0207 173.097 24.0216 173.882 23.9587C174.666 23.8958 175.45 23.8329 176.367 24.2206C176.878 24.2215 177.151 24.1576 177.697 24.03ZM225.153 119.265C224.95 119.072 224.712 119.007 224.509 118.814C223.592 118.426 222.843 118.36 222.059 118.423C221.786 118.487 221.275 118.486 221.037 118.421C220.323 118.227 219.777 118.355 219.266 118.354L218.993 118.418C218.958 118.546 218.888 118.803 218.853 118.932C219.091 118.997 219.567 119.126 219.567 119.126C220.589 119.128 221.338 119.194 222.36 119.196C222.871 119.197 223.62 119.262 224.166 119.135C224.607 119.393 224.88 119.329 225.153 119.265ZM251.148 48.1596C250.742 47.7729 250.335 47.3861 249.894 47.128C248.907 46.9975 248.564 47.3186 248.221 47.6396C248.151 47.8968 248.081 48.154 248.522 48.4122C248.963 48.6703 249.405 48.9284 249.916 48.9294C250.462 48.8017 250.805 48.4806 251.148 48.1596ZM240.367 54.895C241.389 54.8969 242.104 55.0912 242.685 54.8349C243.231 54.7072 243.777 54.5796 244.253 54.7091C245.443 55.0329 246.5 54.9062 247.319 54.7146C247.319 54.7146 247.354 54.5861 247.627 54.5222C247.389 54.4574 247.151 54.3927 247.151 54.3927C246.129 54.3908 245.38 54.3251 244.596 54.388C244.085 54.3871 243.539 54.5148 243.063 54.3853C242.313 54.3196 241.767 54.4472 240.983 54.5102C240.71 54.574 240.675 54.7026 240.367 54.895ZM147.28 122.662C148.197 123.05 148.911 123.244 149.695 123.181C150.241 123.054 150.549 122.861 150.654 122.475C150.416 122.411 149.94 122.281 149.667 122.345C148.918 122.279 148.372 122.407 147.28 122.662ZM74.5513 111.851C75.2304 112.174 75.9795 112.239 76.5255 112.112C76.7635 112.177 76.5955 111.855 76.6305 111.726C76.6655 111.597 76.4624 111.404 76.1894 111.468C75.6784 111.467 75.1323 111.595 74.5513 111.851ZM69.9659 109.913C69.9309 110.041 70.3719 110.299 70.6099 110.364C70.883 110.3 71.156 110.236 71.429 110.173C71.702 110.109 71.534 109.787 71.2959 109.722C70.6169 109.399 69.8328 109.462 69.9659 109.913ZM212.307 119.499C212.986 119.822 213.532 119.694 214.281 119.76C214.519 119.825 215.03 119.826 215.065 119.697C214.897 119.375 214.589 119.568 214.351 119.503C213.434 119.115 212.888 119.243 212.307 119.499ZM62.5986 73.1005C63.1097 73.1014 63.3477 73.1662 63.6207 73.1023L63.6907 72.8451C63.6907 72.8451 63.4877 72.6518 63.2496 72.587C63.0116 72.5222 62.9416 72.7794 62.5986 73.1005ZM9.7569 44.6336C9.55388 44.4402 9.35085 44.2468 9.11283 44.1821C8.87481 44.1173 8.63679 44.0525 8.6018 44.1811C8.5668 44.3097 8.53181 44.4383 8.53181 44.4383C8.53181 44.4383 8.73484 44.6317 8.97286 44.6965C9.21088 44.7613 9.24587 44.6326 9.7569 44.6336ZM224.873 120.294C225.349 120.423 225.825 120.553 226.406 120.297C225.419 120.166 225.419 120.166 224.873 120.294ZM215.821 118.798C216.228 119.185 216.739 119.186 217.012 119.122C217.012 119.122 217.047 118.993 217.082 118.864C217.082 118.864 216.879 118.671 216.64 118.606C216.367 118.67 216.094 118.734 215.821 118.798ZM186.707 121.511C186.672 121.64 186.672 121.64 186.91 121.705L187.148 121.769L187.183 121.641C186.945 121.576 186.707 121.511 186.707 121.511ZM174.259 18.8127L174.532 18.7489C174.532 18.7489 174.532 18.7489 174.294 18.6841C174.294 18.6841 174.056 18.6194 174.259 18.8127C174.021 18.748 174.021 18.748 174.259 18.8127ZM52.8779 112.584C52.8779 112.584 53.1159 112.648 53.1509 112.52L53.1859 112.391L52.9479 112.326C52.9129 112.455 52.9129 112.455 52.8779 112.584ZM71.975 110.045C72.01 109.916 72.248 109.981 71.975 110.045C72.248 109.981 72.248 109.981 72.248 109.981L72.01 109.916C72.01 109.916 72.01 109.916 71.975 110.045ZM239.298 75.7371L239.536 75.8019C239.536 75.8019 239.536 75.8019 239.774 75.8666C239.774 75.8666 239.536 75.8019 239.298 75.7371C239.536 75.8019 239.536 75.8019 239.298 75.7371Z" fill="#211A44"/>
</svg>
