<svg width="67" height="67" viewBox="0 0 67 67" fill="none" xmlns="http://www.w3.org/2000/svg">
<g clip-path="url(#clip0_132_2665)">
<path d="M20.9794 59.979C11.8646 55.6519 5.31819 46.7883 4.32715 36.2917H0.139648C1.5634 53.4883 15.9405 67 33.5001 67C34.1282 67 34.7284 66.9442 35.3426 66.9023L24.7063 56.2521L20.9794 59.979ZM23.464 41.7633C22.9336 41.7633 22.4451 41.6935 21.9984 41.526C21.5657 41.3725 21.1888 41.1492 20.8817 40.87C20.5746 40.5908 20.3374 40.2419 20.1699 39.851C20.0024 39.4463 19.9186 39.0135 19.9186 38.539H16.2894C16.2894 39.544 16.4849 40.4233 16.8757 41.191C17.2665 41.9588 17.783 42.6008 18.439 43.1033C19.0951 43.6198 19.8488 43.9967 20.7142 44.2619C21.5796 44.541 22.473 44.6667 23.4221 44.6667C24.4551 44.6667 25.4182 44.5271 26.3115 44.2479C27.2049 43.9688 27.9726 43.55 28.6286 43.0056C29.2846 42.4613 29.7871 41.7913 30.164 40.9956C30.5269 40.2 30.7224 39.2927 30.7224 38.2738C30.7224 37.7294 30.6526 37.2129 30.5269 36.7104C30.3874 36.2079 30.178 35.7333 29.8988 35.2867C29.6057 34.84 29.2288 34.4492 28.7682 34.0863C28.2522 33.7106 27.6829 33.4142 27.0792 33.2069C27.6376 32.9556 28.1261 32.6485 28.5449 32.2856C28.9636 31.9227 29.3126 31.5319 29.5917 31.1271C29.8709 30.7083 30.0803 30.2896 30.2199 29.8429C30.3594 29.3962 30.4292 28.9496 30.4292 28.5169C30.4292 27.4979 30.2617 26.6046 29.9267 25.8369C29.5917 25.0692 29.1171 24.4271 28.503 23.9106C27.8888 23.3942 27.163 23.0033 26.2976 22.7381C25.3653 22.4574 24.3957 22.3209 23.4221 22.3333C22.4171 22.3333 21.4819 22.4869 20.6305 22.78C19.779 23.0731 19.0532 23.4919 18.439 24.0223C17.8249 24.5527 17.3503 25.1808 17.0013 25.9067C16.6524 26.6325 16.4849 27.4281 16.4849 28.2796H20.114C20.114 27.805 20.1978 27.3863 20.3653 27.0233C20.5328 26.6465 20.7701 26.3254 21.0632 26.0742C21.3563 25.809 21.7192 25.5996 22.124 25.46C22.5288 25.3204 22.9755 25.2367 23.4501 25.2367C24.5667 25.2367 25.3903 25.5298 25.9346 26.1021C26.479 26.6744 26.7442 27.484 26.7442 28.5169C26.7442 29.0194 26.6744 29.466 26.5209 29.8708C26.3674 30.2756 26.144 30.6246 25.8369 30.9177C25.5299 31.2108 25.139 31.4342 24.6924 31.6017C24.2317 31.7692 23.6874 31.8529 23.0732 31.8529H20.9236V34.7144H23.0732C23.6874 34.7144 24.2457 34.7842 24.7342 34.9238C25.2228 35.0633 25.6415 35.2727 25.9905 35.5798C26.3394 35.8729 26.6047 36.2498 26.8001 36.6965C26.9815 37.1431 27.0792 37.6735 27.0792 38.2877C27.0792 39.4183 26.7582 40.2838 26.1021 40.884C25.474 41.4702 24.5946 41.7633 23.464 41.7633ZM47.3607 25.2227C46.468 24.294 45.3879 23.566 44.1922 23.0871C42.9499 22.5846 41.5959 22.3333 40.1024 22.3333H33.5001V44.6667H39.9069C41.4563 44.6667 42.8521 44.4154 44.1224 43.9129C45.3926 43.4104 46.4674 42.6985 47.3607 41.7773C48.254 40.856 48.9519 39.7394 49.4265 38.4413C49.9151 37.1431 50.1524 35.6775 50.1524 34.0583V32.9556C50.1524 31.3365 49.9011 29.8848 49.4126 28.5727C48.924 27.2606 48.2401 26.144 47.3607 25.2227ZM46.258 34.0723C46.258 35.2308 46.1324 36.2917 45.8532 37.2129C45.588 38.1481 45.1971 38.9298 44.6667 39.5719C44.1363 40.214 43.4803 40.7025 42.6847 41.0515C41.889 41.3865 40.9678 41.5679 39.9069 41.5679H37.3805V25.46H40.1024C42.1124 25.46 43.6338 26.1021 44.6946 27.3723C45.7415 28.6565 46.2719 30.499 46.2719 32.9277V34.0723H46.258ZM33.5001 0C32.8719 0 32.2717 0.0558333 31.6576 0.0977083L42.2938 10.7479L46.0067 7.035C55.1355 11.3481 61.6819 20.2117 62.673 30.7083H66.8605C65.4367 13.5117 51.0597 0 33.5001 0Z" fill="#211A44"/>
</g>
<defs>
<clipPath id="clip0_132_2665">
<rect width="67" height="67" fill="white"/>
</clipPath>
</defs>
</svg>
