<svg width="57" height="41" viewBox="0 0 57 41" fill="none" xmlns="http://www.w3.org/2000/svg">
<path d="M1.40125 37.0234L1.40487 37.0121L11.5045 5.26319C11.7563 4.40605 11.8826 3.51228 11.8786 2.61337C11.868 2.45072 11.8879 2.28675 11.938 2.13028C11.938 2.13027 11.938 2.13026 11.938 2.13026L12.8903 2.43475L1.40125 37.0234ZM1.40125 37.0234L1.39791 37.0349C1.31994 37.3019 1.22495 37.8116 1.53871 38.28C1.87598 38.7834 2.41989 38.8594 2.72241 38.8594H7.95771C8.25904 38.8594 8.63932 38.7898 8.96475 38.5176C9.25925 38.2712 9.39861 37.9518 9.45338 37.6591L12.0825 29.6242H21.795L24.5993 37.8522L24.6134 37.8936L24.6311 37.9337C24.7548 38.2137 24.9593 38.4573 25.2266 38.6258L25.2267 38.6258C25.4838 38.7878 25.7848 38.8708 26.0926 38.8594H31.931C32.2201 38.8594 32.7848 38.7735 33.0868 38.2141C33.3355 37.7534 33.2147 37.2829 33.1449 37.0654L33.144 37.0628L21.8518 2.24161C21.7866 1.98186 21.64 1.70671 21.3654 1.50313C21.0785 1.29035 20.762 1.23794 20.5193 1.23794H13.2339C13.0617 1.22689 12.8893 1.25131 12.7271 1.3094C12.535 1.37819 12.3658 1.49106 12.2302 1.63456L1.40125 37.0234ZM40.7472 27.1472H48.9208C51.4409 27.1472 53.2262 27.0792 54.2004 26.9245C54.5403 26.8847 54.8479 26.7237 55.0748 26.4816C55.2977 26.2439 55.4305 25.9424 55.4637 25.6287C55.6344 24.5592 55.7047 23.4745 55.6737 22.3906C55.7195 19.4063 54.7881 16.4905 53.0277 14.1391L53.0264 14.1374C51.1583 11.6533 48.3465 10.4731 44.7856 10.4731C40.993 10.4731 37.9324 11.9225 35.7144 14.8237C33.5405 17.6672 32.483 21.178 32.4829 25.2891C32.4829 25.2893 32.4829 25.2895 32.4829 25.2897H33.4829L40.7472 27.1472ZM40.7472 27.1472C40.918 28.7537 41.4397 29.9796 42.2512 30.8917C43.1795 31.9349 44.6308 32.5374 46.8008 32.5354L46.8107 32.5354L46.8206 32.5356C48.6224 32.5696 50.4126 32.2089 52.0795 31.4746L40.7472 27.1472ZM47.8708 21.0071C47.4926 21.0206 46.9872 21.0277 46.3499 21.0277H40.8253C41.027 20.0178 41.4192 19.0599 41.9799 18.2133C42.5852 17.3627 43.4113 16.9357 44.583 16.9357C45.8297 16.9357 46.5625 17.355 47.0145 18.0739C47.5571 18.9414 47.8555 19.9597 47.8708 21.0071ZM13.9271 21.6873L16.8708 11.308C17.2533 12.6292 17.7093 14.1924 18.161 15.7316C18.6803 17.5012 19.1977 19.2518 19.5985 20.591C19.7201 20.9974 19.8312 21.3666 19.9285 21.6873H13.9271ZM51.866 32.5722C51.8659 32.5695 51.8659 32.5681 51.8659 32.5681C51.8659 32.5681 51.866 32.5695 51.866 32.5722Z" fill="#211A44" stroke="white" stroke-width="2"/>
</svg>
