<svg width="132" height="105" viewBox="0 0 132 105" fill="none" xmlns="http://www.w3.org/2000/svg">
<path d="M41.0709 46.9818L43.7218 46.6822C44.6192 46.5847 45.5218 46.4764 46.4314 46.3892C48.2518 46.2021 50.0608 45.9675 51.8088 45.6254C52.3707 45.5241 52.9417 45.4562 53.5187 45.4219C54.1543 45.3848 54.8161 45.3648 55.3978 45.3522C57.143 45.319 58.8978 45.2661 60.6744 45.2039C62.4511 45.1417 64.2261 45.1031 66.0306 44.9991C66.5658 44.9704 67.1527 44.9825 67.636 44.9285C72.5804 44.4139 77.5955 44.5986 82.5708 44.5112C83.4447 44.4952 84.3233 44.4815 85.2065 44.4701L87.8497 44.4946C89.6117 44.5028 91.3731 44.4819 93.1373 44.3694C95.089 44.2775 97.434 44.3867 99.5913 44.4553C101.217 44.4944 102.849 44.6028 104.476 44.6801C106.103 44.7575 107.731 44.8467 109.358 44.944L114.246 45.3035L116.688 45.4822C117.5 45.5427 118.313 45.6277 119.128 45.7C121.151 45.8868 122.905 46.0928 123.149 46.6797C123.288 47.0114 124.946 47.3805 125.019 47.7972C125.208 48.8911 122.471 49.4723 117.343 49.1948C115.05 49.1046 112.706 48.94 110.387 48.8171C109.278 48.7514 108.175 48.7349 107.07 48.7112L103.759 48.6327L102.098 48.5743L101.267 48.5359L100.435 48.5057C99.3237 48.459 98.2087 48.3904 97.0832 48.2878C96.2815 48.215 95.4027 48.1887 94.4894 48.1722C94.0352 48.1717 93.573 48.1674 93.1227 48.1689L91.7769 48.1935C90.5227 48.2127 89.2713 48.2177 88.0227 48.2086C86.7764 48.2065 85.5292 48.1708 84.2865 48.1815L80.5614 48.1621L78.7026 48.1398C78.0821 48.1357 77.4595 48.126 76.8409 48.1383C75.2569 48.1551 73.6091 48.1407 72.0775 48.2473C71.058 48.3118 70.0455 48.3619 69.0491 48.4399L66.0185 48.6469C63.9984 48.7829 61.9598 48.8655 59.9331 49.0248C57.9982 49.1581 56.1312 49.3091 54.1588 49.3776C52.1268 49.4922 49.9717 49.7881 47.8682 49.9985C47.1752 50.072 46.4767 50.1316 45.7837 50.2205L43.7089 50.4782L39.5583 50.9908L38.5117 51.1108L37.4769 51.252L35.4018 51.5206C34.0175 51.6947 32.6274 51.8536 31.2317 51.9971C29.6437 52.3 28.0329 52.5939 26.4007 52.8507C24.7685 53.1076 23.1299 53.337 21.5037 53.6322C19.8774 53.9275 18.233 54.1939 16.6152 54.5022L15.4071 54.7403L14.2144 55.0126C13.4253 55.1986 12.6417 55.3953 11.8635 55.6029C10.901 55.8591 9.83804 56.1084 8.72416 56.3306L7.02668 56.6553C6.45392 56.7609 5.87577 56.8572 5.29604 56.9416C-0.134545 57.7282 -0.781434 57.6469 0.897816 56.1013C1.39225 55.6699 1.93 55.2833 2.50491 54.9458C3.41727 54.3881 4.59781 53.9436 6.86053 53.4277C8.44794 53.0958 10.0097 52.7203 11.552 52.3241C13.0942 51.928 14.6146 51.5057 16.1413 51.1463C17.3562 50.8539 18.5492 50.5507 19.7821 50.267C21.0592 49.9671 22.3598 49.7373 23.6777 49.5787C24.6776 49.4582 25.7442 49.2217 26.7455 49.0176C27.892 48.7892 29.0412 48.5555 30.2077 48.3568C31.3743 48.1582 32.5499 47.9817 33.7402 47.8102C34.9306 47.6387 36.1272 47.4746 37.3528 47.327C38.5784 47.1794 39.8116 47.082 41.0709 46.9818Z" fill="#5C5692"/>
<path d="M113.042 41.5433C114.938 42.045 116.94 42.7072 118.944 42.9019C119.261 42.9428 119.576 43.0134 119.884 43.1124C120.052 43.1642 120.225 43.2223 120.393 43.2803L120.901 43.4635C122.726 44.0656 124.443 44.63 126.132 45.161C127.821 45.692 129.488 46.1952 131.274 46.6952L131.286 46.701C130.844 46.9407 130.264 47.2025 129.943 47.4166C129.091 47.9663 128.097 48.5444 127.06 49.1171C126.023 49.6898 124.941 50.2625 123.879 50.8055L122.384 51.5687L121.523 51.9897C120.951 52.2725 120.385 52.5627 119.833 52.8734C118.278 53.7508 116.615 54.4803 115.182 55.5503C114.394 56.1467 113.309 56.6609 112.331 57.1624C109.387 58.6806 106.436 60.1847 103.479 61.6748C102.56 62.1392 101.738 62.5052 101.281 62.0701C101.022 61.8235 100.135 62.0181 99.8487 61.6797C99.0997 60.7902 99.8447 59.4336 102.076 58.0729C103.071 57.4688 104.149 56.9184 105.181 56.3347C107.157 55.2221 108.995 53.9459 111.202 53.121C111.991 52.8281 112.827 52.2903 113.603 51.8299C114.708 51.1729 115.843 50.5764 116.983 49.9926C117.557 49.7066 118.134 49.4242 118.712 49.1455L119.578 48.7292L120.013 48.5207L120.233 48.4103C120.27 48.39 120.309 48.3726 120.35 48.3585C120.473 48.3141 120.614 48.2696 120.754 48.2115C120.881 48.1625 120.997 48.0958 121.099 48.0137C121.259 47.8628 121.429 47.7217 121.609 47.591C121.196 47.5051 120.88 47.4222 120.561 47.3276C120.42 47.2851 120.281 47.2498 120.144 47.2065L120.039 47.1708L120.015 47.1591L119.967 47.1356L119.771 47.0746C119.513 46.9947 119.252 46.9087 118.989 46.8166C117.905 46.435 116.696 46.2063 115.542 45.9017C112.493 45.0981 109.423 44.4023 106.405 43.398C102.787 42.7204 99.1433 41.3055 95.4962 40.755C94.2392 40.5623 92.9972 40.2277 91.7987 39.759C88.8756 38.6006 88.5992 38.3129 89.9916 37.5562C90.371 37.363 90.7776 37.2127 91.2033 37.1082C91.8499 36.9379 92.5811 36.9551 93.8542 37.2699C95.6409 37.707 97.4363 37.9587 99.195 38.2296C100.603 38.4466 101.957 38.6157 103.451 39.1127C104.017 39.2779 104.591 39.4054 105.169 39.4941C107.825 39.9956 110.457 40.6807 113.042 41.5433V41.5433Z" fill="#5C5692"/>
</svg>
