<svg width="65" height="43" viewBox="0 0 65 43" fill="none" xmlns="http://www.w3.org/2000/svg">
<path d="M1.40204 38.6401L1.38499 38.6903L1.37334 38.7421C1.31951 38.9813 1.22948 39.4779 1.49779 39.9365C1.82784 40.5005 2.41226 40.5826 2.73143 40.5826H9.09522C9.86238 40.6353 10.5604 40.1175 10.7426 39.3503L13.0918 31.856H24.2977L26.9232 39.4839C27.1161 40.1591 27.7666 40.639 28.4731 40.5826H35.5294C35.7986 40.5826 36.3816 40.5272 36.7218 39.9792C37.0097 39.5152 36.9054 39.0107 36.8516 38.7901L36.8405 38.7448L36.8253 38.7006L24.4792 2.9395C24.2834 2.10829 23.4723 1.91113 23.0668 1.91113H14.2378H14.153L14.0694 1.92542C13.3861 2.04219 12.89 2.67888 12.9507 3.36205C12.9445 3.96823 12.8434 4.59614 12.7023 5.24345C12.544 5.67584 12.4443 6.04714 12.3558 6.38018L1.40204 38.6401ZM21.2265 21.6963L21.2265 21.6964L21.23 21.7065C21.3729 22.1169 21.5079 22.5165 21.6297 22.8943H15.7287C16.0974 21.776 16.4629 20.5678 16.7648 19.2884C17.0795 18.2812 17.3879 17.2489 17.6896 16.239C17.9018 15.5287 18.1107 14.8295 18.3161 14.158C18.4208 13.8285 18.5195 13.4994 18.613 13.1709C18.8264 13.9158 19.0514 14.6782 19.3109 15.4768C19.4822 16.0035 19.6383 16.5238 19.7982 17.0566L19.7997 17.0615C19.9572 17.5866 20.1184 18.1239 20.2961 18.671C20.3872 18.9698 20.4771 19.2713 20.567 19.5724C20.7827 20.2954 20.998 21.0167 21.2265 21.6963ZM61.5708 10.6705H55.1318C54.8103 10.6705 54.43 10.7533 54.1161 11.0269C53.7867 11.314 53.6536 11.7043 53.6536 12.0627V31.3848C53.2137 31.6694 52.7276 31.9025 52.1718 32.1077L52.1718 32.1076L52.1592 32.1124C51.5159 32.3598 50.8734 32.4707 50.1913 32.4707C48.7871 32.4707 47.8545 32.0415 47.4958 31.5451C47.0143 30.8784 46.6971 29.8926 46.6971 28.5027V11.9973V11.9366L46.6898 11.8763C46.5921 11.0752 45.8968 10.5776 45.1941 10.6378H38.6531H38.5892L38.5259 10.6459C37.6941 10.7525 37.2502 11.483 37.3024 12.148V29.4086C37.2697 31.2054 37.5061 32.972 38.0136 34.6719L38.014 34.6733C38.4379 36.0859 39.1477 37.3623 40.1434 38.4566C41.0583 39.4694 42.2196 40.2104 43.4444 40.6537L43.4458 40.6541C44.76 41.1276 46.1231 41.3017 47.4821 41.3017C48.8385 41.3017 50.2426 41.1282 51.5591 40.7375C52.5601 40.441 53.5271 40.0106 54.411 39.4423L54.424 39.502L54.4476 39.5665C54.692 40.2349 55.344 40.6673 56.0682 40.6153H61.8571C62.1195 40.6153 62.5809 40.5593 62.9235 40.1641C63.2529 39.7841 63.2606 39.3313 63.2354 39.0658C63.2034 38.7055 63.1712 38.3756 63.1088 37.8302C63.0779 37.2871 63.0468 36.6486 63.0156 35.9445C62.9848 35.2183 62.9846 34.424 62.9846 33.4707V12.4042L63.0165 12.3715V11.9646C63.0165 11.4591 62.7273 11.1012 62.4593 10.9131C62.2347 10.7555 61.9182 10.6386 61.5708 10.6705ZM62.9846 12.0627C62.9846 12.0503 62.9852 12.0556 62.9846 12.0729V12.0627Z" fill="#211A44" stroke="white" stroke-width="2"/>
</svg>
