<svg width="46" height="47" viewBox="0 0 46 47" fill="none" xmlns="http://www.w3.org/2000/svg">
<path d="M10.5415 38.3652C13.4165 36.4486 17.2498 35.4902 19.1665 33.5736C21.0832 31.6569 15.3332 31.6569 15.3332 22.0736C15.3332 12.4902 22.9998 12.4902 22.9998 12.4902C22.9998 12.4902 30.6665 12.4902 30.6665 22.0736C30.6665 31.6569 24.9165 31.6569 26.8332 33.5736C28.7498 35.4902 32.5832 36.4486 35.4582 38.3652" stroke="#211A44" stroke-opacity="0.5" stroke-width="1.5" stroke-linecap="round"/>
<path fill-rule="evenodd" clip-rule="evenodd" d="M23.0002 43.1569C33.5856 43.1569 42.1668 34.5757 42.1668 23.9902C42.1668 13.4048 33.5856 4.82355 23.0002 4.82355C12.4147 4.82355 3.8335 13.4048 3.8335 23.9902C3.8335 34.5757 12.4147 43.1569 23.0002 43.1569Z" stroke="#211A44" stroke-opacity="0.5" stroke-width="1.5"/>
</svg>
