<svg width="33" height="20" viewBox="0 0 33 20" fill="none" xmlns="http://www.w3.org/2000/svg">
<path d="M4.38758 10.7709H9.46518C10.5929 10.7709 12.527 11.2402 12.527 13.3104C12.527 14.3899 11.6335 15.6623 10.5058 15.6623H4.38214V10.7709H4.38758ZM20.71 1.00885H29.8682V3.93954H20.71V1.00885ZM28.6587 10.7709H21.9249C22.1537 9.02913 23.5103 7.86623 25.3082 7.86623C27.106 7.86623 28.37 9.06042 28.6587 10.7709ZM21.7233 12.7368H32.93V12.2362C32.93 8.2052 29.9009 4.94076 25.3082 4.94076C20.7155 4.94076 17.6482 8.2052 17.6482 12.2362C17.6482 16.2672 20.6828 19.563 25.3082 19.563C29.9336 19.563 32.0965 17.0546 32.7938 13.7068H28.6642C28.2828 15.4224 27.2204 16.6375 25.3136 16.6375C23.4068 16.6375 21.8759 14.9218 21.7342 12.7368H21.7233ZM16.6348 13.7016C16.6348 11.5739 15.1639 9.75399 13.1699 9.0865C14.6136 8.23128 15.5997 6.68249 15.5997 4.94076C15.5997 2.2343 13.317 0.0493164 10.5167 0.0493164H0.317871V19.563H10.5167C13.8672 19.563 16.6403 16.9399 16.6403 13.7068L16.6348 13.7016ZM9.46518 7.87145H4.38758V3.94476H9.46518C10.5929 3.94476 11.5191 4.82603 11.5191 5.9107C11.5191 6.99537 10.5929 7.87145 9.46518 7.87145Z" fill="#211A44"/>
</svg>
