<svg width="657" height="406" viewBox="0 0 657 406" fill="none" xmlns="http://www.w3.org/2000/svg">
<path d="M86.9724 139.979C87.5264 139.593 88.0803 138.819 88.6343 138.046C87.5264 138.046 86.4184 138.046 85.3105 138.046C85.8645 137.273 86.4184 136.886 86.4184 136.113C88.0803 135.339 89.7422 136.113 90.8502 134.566C90.8502 133.793 89.1883 134.179 88.6343 133.793C88.0803 133.406 88.0803 133.019 87.5264 132.246C88.6343 131.859 89.1883 131.472 90.2962 131.472C91.9581 131.472 92.512 131.086 93.62 130.699C95.8358 129.926 97.4977 128.766 100.268 127.606C99.7136 127.219 99.7136 126.446 99.1596 126.059C100.268 125.672 101.375 125.285 101.929 124.899C102.483 124.899 102.483 124.512 103.037 124.512C105.807 124.899 106.915 123.352 108.023 122.192C108.577 121.805 108.577 121.419 109.131 121.419C112.455 120.259 115.778 121.032 119.102 120.645C119.656 120.645 120.21 121.032 120.764 121.032C123.534 121.805 125.75 121.419 127.966 120.259C130.182 119.099 132.951 118.325 135.721 118.325C137.383 118.325 139.045 117.938 140.153 116.778C140.707 116.778 141.261 116.778 142.369 117.165C144.031 115.618 145.692 114.072 149.016 113.685C150.678 113.298 151.786 112.912 153.448 112.912C156.772 112.525 159.542 111.365 162.311 110.205C166.189 108.658 170.621 107.111 174.499 105.951C177.268 105.178 179.484 104.018 182.254 102.858C185.024 101.698 188.348 100.538 191.671 100.151C191.671 101.311 190.01 101.698 189.456 102.084C186.686 103.244 183.362 104.405 180.038 105.565C178.376 105.951 177.268 106.725 176.16 107.498C173.945 108.658 171.729 109.431 168.959 110.205C165.081 111.365 161.203 113.298 157.88 114.845C157.326 114.845 157.326 115.232 157.326 115.232C157.326 116.005 157.88 116.005 158.434 116.005C160.096 116.005 161.757 116.005 162.865 115.618C162.865 115.618 162.865 115.618 163.419 115.618C166.743 115.618 168.959 114.072 171.175 113.298C175.053 112.138 178.93 110.591 182.254 108.658C182.808 108.271 183.362 108.271 183.916 108.271C187.794 107.498 190.563 105.178 193.887 103.631C194.995 102.858 196.103 102.084 197.765 101.311C199.427 100.538 200.535 99.3776 200.535 97.8309C201.089 97.8309 201.643 97.8309 202.197 97.8309C202.751 97.8309 203.305 97.4442 203.305 96.6708C203.305 95.8975 202.751 95.8975 201.643 95.8975C202.197 95.5108 202.197 95.1241 202.751 95.1241C205.52 93.964 208.29 92.0306 211.614 91.2573C214.384 90.4839 216.046 89.3238 218.816 88.9371C219.37 88.9371 219.37 88.5505 219.37 88.5505C221.031 87.3904 222.693 86.617 225.463 86.617C226.571 84.2969 229.895 84.6836 232.111 83.9103C232.665 84.2969 232.111 84.6836 232.111 84.6836C232.111 84.6836 232.111 84.6836 231.557 84.6836C229.895 87.0037 226.571 88.1638 223.247 89.3238C222.693 89.7105 222.139 90.0972 221.585 90.4839C220.477 90.8706 219.924 91.6439 218.816 91.6439C217.708 92.0306 216.6 92.804 216.046 93.1907C215.492 93.5774 214.384 94.3507 214.384 95.5108C214.938 95.5108 214.938 95.8975 215.492 95.8975C217.708 95.8975 219.924 95.1241 221.585 94.3507C224.355 92.4173 227.679 91.2573 231.003 89.7105C233.219 88.5505 235.434 87.7771 237.65 87.0037V87.3904C237.65 87.3904 238.204 87.3904 238.758 87.3904C238.758 87.3904 238.758 87.3904 238.758 87.0037L238.204 86.617H237.65C238.204 86.2304 238.204 85.8437 238.758 85.8437C240.974 85.457 242.636 84.2969 243.744 83.1369C244.852 81.9768 245.96 81.2035 247.068 80.8168C248.176 80.4301 249.284 79.6567 250.391 78.8834C250.391 78.8834 250.391 78.4967 250.945 78.11C250.391 78.11 249.838 78.11 249.284 78.11C247.068 78.8834 244.852 79.27 243.19 80.0434C242.636 80.4301 241.528 80.8168 240.974 81.2035C239.312 82.3635 237.096 83.1369 234.881 83.5236H234.327C234.881 82.3635 237.096 82.3635 237.65 81.2035C238.204 80.8168 238.758 80.4301 238.758 80.4301C238.204 79.27 239.312 78.8834 240.42 78.4967C243.19 78.11 244.852 76.9499 247.068 75.7899C247.622 75.4032 248.73 75.0165 249.284 75.0165C249.838 75.0165 250.391 74.6298 250.391 74.2431C252.053 72.6964 254.269 71.5364 257.039 70.763C258.147 70.3763 259.255 69.6029 260.363 69.2163C260.917 68.8296 261.471 69.2163 262.025 69.2163C262.579 69.2163 263.687 68.8296 264.241 68.8296C263.133 69.6029 262.579 70.3763 261.471 70.763C262.579 71.923 263.133 72.3097 263.687 71.923C265.348 71.5364 266.456 70.763 268.118 69.9896C269.226 69.6029 269.78 68.8296 271.442 68.8296C271.442 68.8296 271.996 68.8296 271.996 68.4429C273.658 67.2828 275.32 66.1228 277.536 65.3494C278.644 63.8027 280.305 63.8027 282.521 63.8027C283.075 62.6426 281.967 63.0293 281.413 62.6426C283.075 61.8693 284.183 61.0959 285.845 60.7092C286.953 60.3225 288.061 59.9358 289.169 60.3225C289.723 60.3225 290.277 60.3225 290.831 59.9358C291.385 59.1625 293.047 58.7758 293.601 58.0024C294.155 57.6157 294.709 57.229 295.816 57.6157C293.601 58.0024 293.601 58.0024 293.047 58.3891C291.939 59.5491 292.493 60.3225 294.155 61.0959C295.816 59.9358 298.032 59.1625 299.694 58.0024C301.91 56.4557 304.126 56.069 307.45 56.4557C308.558 56.8424 309.666 56.4557 310.219 55.6823C310.219 55.2956 310.219 54.9089 310.219 54.5223C309.666 54.5223 309.112 54.5223 309.112 54.5223V54.1356C309.665 53.7489 310.219 53.3622 310.773 53.3622C311.881 52.9755 312.435 52.5888 313.543 52.2021C314.651 51.4288 316.313 50.6554 317.975 50.2687C319.637 49.882 320.745 49.4954 322.407 49.1087C324.069 48.722 324.622 47.5619 325.73 46.7886C326.838 46.4019 327.946 45.6285 329.054 45.6285C331.27 45.2418 332.932 44.0818 334.04 42.9217C336.256 44.4685 336.81 44.4685 338.472 42.9217C338.472 42.535 339.026 42.535 339.026 42.535C339.026 42.535 339.026 42.9217 339.579 42.9217L340.133 42.535C341.241 41.7617 342.349 41.375 343.457 40.6016C345.119 39.8282 346.781 39.8283 348.443 39.8283C348.997 39.8283 349.551 40.2149 349.551 40.6016C350.105 40.9883 350.659 41.7617 351.213 42.535C350.659 43.3084 350.659 44.0818 350.105 44.8551C350.105 45.2418 350.659 46.0152 351.767 45.6285C352.321 45.6285 352.321 45.6285 352.875 45.2418C354.537 44.4685 356.198 43.6951 357.306 42.9217C358.414 41.7617 360.076 41.375 361.738 41.7617C363.954 40.6016 365.616 39.4416 368.386 39.0549C370.601 37.5081 373.925 36.7348 376.141 34.8014C376.141 35.188 376.695 35.5747 376.695 35.9614C377.249 36.3481 377.803 36.3481 378.911 36.7348C380.573 36.3481 382.235 35.5747 383.897 35.188C384.451 35.5747 384.451 35.9614 385.004 36.3481C385.558 36.7348 386.666 37.1215 387.22 36.7348C387.774 35.5747 388.328 34.8014 389.99 35.188C388.328 36.7348 386.112 37.8948 383.343 38.2815C380.573 38.6682 378.357 39.8282 376.141 40.6016C375.587 40.9883 374.479 41.375 374.479 41.7617C373.925 43.3084 372.817 43.6951 371.155 44.0818C368.94 44.8551 366.724 46.0152 366.17 48.3353C366.17 49.1087 366.724 49.4954 367.832 49.4954C369.494 49.4954 370.601 49.1087 372.263 49.1087C372.817 48.722 373.371 47.9486 373.925 47.5619C375.587 45.6285 378.357 44.8551 381.681 44.8551C382.235 44.8551 383.343 44.8551 383.897 44.4685C384.451 44.0818 384.451 43.6951 385.004 42.9217C385.004 42.535 385.004 42.535 385.004 42.1484C385.558 42.1484 385.558 42.1484 386.112 42.1484C388.328 42.9217 389.99 42.1484 391.652 40.9883C392.206 40.6016 392.206 40.2149 392.76 39.8283C393.314 39.4416 393.314 39.0549 393.868 39.0549C397.192 38.2815 397.746 35.5747 399.961 34.4147V33.6413C399.961 33.6413 398.854 33.2546 398.854 33.6413C397.746 34.028 396.638 34.4147 396.084 35.188C395.53 35.5747 394.976 35.9614 394.422 36.3481C393.314 35.5747 392.206 35.188 391.652 34.4147C393.868 33.2546 396.638 32.4813 398.3 30.9345C397.746 30.9345 398.854 30.5478 399.408 30.5478C401.069 29.7745 402.731 29.0011 404.393 28.6144C405.501 28.2277 406.055 27.4544 407.717 27.841L408.825 27.4544C409.379 26.681 409.933 25.5209 410.487 24.7476C411.041 24.3609 412.149 24.3609 412.703 23.9742C413.811 23.2008 413.811 22.4275 414.365 21.6541C415.472 21.6541 416.58 21.2674 417.134 20.8807C417.134 21.6541 417.688 22.4275 417.134 23.2008C416.58 24.7476 417.688 25.9076 419.35 27.4544C420.458 28.6144 421.566 29.3878 422.674 30.5478C423.782 30.5478 424.89 30.5478 425.444 29.7745C426.552 28.6144 427.66 27.4544 429.322 26.2943C430.983 26.2943 430.983 27.841 432.091 28.2277C433.199 28.2277 434.307 28.2277 435.969 28.2277C436.523 29.7745 437.631 30.9345 435.969 32.4812C435.415 32.8679 435.969 33.2546 435.415 33.6413C437.077 34.4147 438.739 34.028 439.847 34.028C440.401 34.4147 440.955 34.8014 441.509 35.188C442.617 37.1215 445.386 37.1215 447.602 36.7348C449.264 36.3481 451.48 36.3481 453.142 36.3481C454.25 36.3481 455.912 35.9614 456.466 35.5747C458.128 34.4147 459.789 33.6413 460.343 32.0946C460.897 30.9345 463.113 29.7745 464.221 29.0011C467.545 29.0011 468.099 30.9345 470.315 31.7079C469.207 32.0946 468.099 32.8679 467.545 33.2546C467.545 34.028 468.099 34.8014 466.437 35.5747C465.883 35.9614 465.883 36.3481 466.437 37.1215C466.991 37.8948 467.545 37.8948 468.653 37.8948C469.761 37.8948 470.315 37.5081 471.423 37.5081C473.639 37.1215 474.746 36.3481 475.854 35.188C476.408 34.4147 476.962 34.028 477.516 33.6413C478.624 32.8679 478.624 32.0946 479.732 30.9345C480.84 30.5478 481.948 30.5478 483.61 30.1611C483.61 28.6144 485.272 27.4544 487.488 27.0677C488.596 27.0677 489.15 26.681 490.257 26.2943C493.027 25.5209 493.581 25.1343 494.135 22.8141C493.027 22.0408 491.919 21.6541 490.257 20.8807C490.811 19.7207 490.811 18.5606 491.365 17.7873C490.257 17.0139 489.15 16.6272 488.042 16.2405C486.934 15.8538 485.272 15.4671 484.164 15.0805C482.502 14.6938 481.394 14.6938 479.178 14.3071C478.624 13.9204 478.07 13.5337 477.516 13.5337C476.962 13.147 476.408 13.147 475.854 12.7604C475.854 11.987 475.854 11.2136 475.3 10.4403C477.516 10.0536 479.732 10.0536 481.394 11.2136C481.394 11.2136 481.948 11.6003 482.502 11.6003C484.164 11.2136 485.272 11.987 486.38 12.7604C486.934 13.147 488.042 13.147 488.596 13.5337C490.257 13.5337 491.919 13.9204 493.581 13.9204C494.135 13.9204 494.689 13.9204 495.243 13.9204C496.905 13.5337 498.567 13.9204 500.229 13.9204C501.337 13.9204 501.891 14.3071 502.999 15.0805C502.999 15.8538 502.445 16.6272 502.445 17.0139C502.445 17.4006 503.553 17.7872 504.107 18.1739C504.107 18.5606 503.553 18.5606 503.553 18.9473C502.445 19.7207 501.891 20.1074 502.999 21.2674C503.553 20.8807 504.107 21.6541 504.107 22.4275C504.107 23.9742 503.553 25.1343 503.553 26.681C504.107 27.0677 505.768 27.4544 505.768 28.6144C505.768 29.0011 506.322 29.3878 506.876 29.3878C508.538 29.7745 509.646 30.5478 510.2 31.3212C510.754 31.7079 511.308 32.0946 511.862 31.7079C512.97 31.7079 512.97 30.9345 512.97 30.5478C512.97 30.1611 512.97 29.3878 512.416 29.0011C512.416 28.6144 512.416 28.2277 511.862 27.4544C514.632 26.681 516.294 27.4544 518.51 28.2277C519.617 28.6144 520.171 29.3878 521.279 30.1611C521.279 31.3212 521.279 31.3212 523.495 32.8679C526.819 31.7079 530.143 30.5478 533.467 29.0011C534.021 29.0011 535.128 29.3878 535.682 29.3878C537.898 29.7745 538.452 29.3878 539.56 28.2277C539.56 27.841 540.114 27.4544 540.114 27.0677C541.776 27.0677 543.992 27.0677 545.1 25.1343C545.654 25.9076 545.654 26.2943 545.654 26.2943C545.1 27.841 545.1 29.7745 543.438 31.3212C542.884 31.7079 542.884 32.0946 542.884 32.4812C541.776 34.4147 541.776 35.9614 542.884 37.8948C542.884 38.6682 543.992 39.0549 544.546 39.8283C543.992 41.7617 542.884 43.3084 541.222 44.8551C540.114 46.0152 539.006 47.5619 538.452 48.722C537.898 50.2687 537.344 51.4288 535.682 52.5888C535.128 52.9755 534.574 53.7489 534.574 54.5223C534.021 56.069 535.682 57.6157 535.682 59.1625C535.682 59.9358 536.79 60.7092 538.452 61.4826L539.006 61.8693C539.56 63.8027 539.006 65.3494 538.452 67.2828C538.452 68.0562 537.344 68.8296 536.236 69.2163C535.128 69.6029 534.021 69.9896 532.359 70.763C529.589 71.923 527.927 73.4698 527.927 75.7899C527.927 76.1766 527.927 76.1766 527.927 76.5632C527.927 76.5632 527.927 76.5632 527.927 76.9499C529.035 77.3366 530.143 78.11 531.251 78.4967C530.143 79.6567 529.035 80.4301 528.481 81.2035C528.481 82.3635 530.143 82.3635 530.697 83.1369C530.697 83.5236 530.143 83.5236 530.143 83.9103V83.5236C529.589 83.9103 528.481 83.9103 527.927 83.9103C527.373 83.9103 527.373 83.9103 526.819 83.9103C526.819 84.2969 526.819 84.2969 526.819 84.6836C526.265 85.8437 524.603 85.457 524.049 86.617C524.049 87.0037 524.049 87.7771 525.157 88.1638C526.819 88.5505 527.927 88.1638 529.589 87.7771C530.143 87.3904 530.143 87.3904 530.697 87.0037C531.805 85.457 533.467 83.9102 534.574 82.7502C535.682 81.5901 537.344 80.8168 539.006 80.0434C540.114 79.6567 541.222 79.6567 542.33 80.0434C542.884 80.0434 542.884 79.6567 543.438 79.6567L543.992 80.0434C543.438 81.9768 545.1 83.1369 545.654 84.6836C545.1 85.0703 545.1 85.0703 544.546 85.457C543.438 85.8437 543.992 86.617 543.992 87.3904C542.884 87.7771 541.776 87.7771 541.222 88.9371C541.222 88.9371 540.668 88.9371 540.668 89.3238C540.668 89.3238 540.668 89.3238 541.222 89.3238C541.222 89.3238 541.222 88.9371 541.776 88.9371C542.33 88.9371 542.884 89.3238 543.438 89.3238C542.884 89.7105 542.33 90.0972 541.776 90.4839C541.222 90.8706 541.222 91.2572 541.222 92.0306C541.222 92.804 541.222 93.964 539.56 94.3507C539.006 94.7374 538.452 95.1241 538.452 95.5108C539.006 96.2841 539.56 97.0575 540.668 97.8309C540.668 97.8309 540.114 97.8309 540.114 98.2176V97.8309C540.668 97.8309 540.668 97.8309 541.222 98.2176C541.776 98.6042 542.33 98.6042 542.884 97.8309C542.884 97.8309 543.438 97.8309 543.438 97.4442C543.438 97.8309 542.884 98.6043 542.884 98.9909C542.33 99.3776 541.776 99.7643 541.776 100.151C542.884 101.698 542.884 101.698 541.776 102.858C541.222 103.631 541.222 104.791 540.114 105.178C539.56 105.565 540.668 106.725 541.222 106.338C542.33 105.951 543.992 106.338 544.546 106.725C544.546 107.111 544.546 107.885 544.546 108.271C543.992 108.271 543.992 108.271 543.438 108.271C542.33 107.885 541.222 107.498 540.114 108.658C540.114 109.045 540.668 109.045 540.668 109.818C539.56 110.205 538.452 110.591 536.79 110.978C536.79 112.138 537.898 112.525 538.452 112.912C538.452 113.298 538.452 114.072 538.452 114.458C538.452 114.845 537.898 114.845 537.898 114.845C536.236 115.618 535.682 117.165 535.682 118.712C535.682 119.485 537.344 119.872 537.898 119.485C539.56 118.325 542.33 118.325 544.546 117.938C545.654 117.552 545.654 115.618 548.424 115.618C548.424 117.165 547.87 118.325 545.654 119.099C546.208 120.645 549.531 119.485 549.531 121.032C547.87 121.419 546.208 121.419 545.1 120.645C544.546 120.259 543.438 120.259 543.438 121.032C543.992 121.419 544.546 121.805 545.1 122.579C545.654 122.965 545.654 123.352 546.208 123.352C548.977 123.352 550.639 125.285 553.409 125.672C553.963 125.672 554.517 126.446 553.963 126.832C552.855 127.219 552.301 127.606 551.747 128.766C551.747 129.152 551.193 129.926 550.639 130.312C553.409 131.472 556.733 132.632 560.057 132.632C560.611 132.632 561.165 132.632 561.719 132.246C563.381 131.472 565.596 130.699 567.258 130.312C567.812 129.926 568.366 129.926 568.92 129.539C570.582 128.379 572.244 128.379 573.906 129.539C574.46 129.926 575.568 130.699 576.676 131.472C576.676 131.859 576.676 132.632 576.122 133.406C576.676 133.793 577.23 133.793 577.784 134.179C581.661 131.086 585.539 127.606 589.971 124.512C591.079 125.285 592.187 126.059 593.295 126.832C594.402 126.059 596.064 125.285 596.618 124.899C597.172 124.899 597.172 124.899 597.726 124.899C598.834 125.672 599.388 126.059 600.496 126.832C601.604 127.606 602.712 126.832 603.82 127.606C604.374 127.992 606.036 127.606 607.144 127.992C607.698 128.766 607.144 129.539 607.144 130.699C607.144 131.472 606.59 132.246 606.59 133.019C606.59 134.566 606.036 135.726 604.374 136.886C602.712 139.979 599.388 141.913 596.618 144.233C596.064 144.62 595.51 145.006 595.51 145.78C595.51 147.326 594.956 148.487 593.295 149.647C593.295 149.647 593.295 150.033 592.741 150.033C591.633 151.193 592.187 152.353 593.849 152.74C594.402 152.74 594.956 153.127 595.51 153.127C595.51 153.513 594.956 153.513 594.956 153.9C595.51 155.06 595.51 156.22 594.956 156.994C596.064 158.154 597.726 159.314 598.834 160.474C600.496 160.474 602.158 160.474 604.374 161.247C604.374 161.634 604.374 162.02 603.82 162.407C603.266 162.794 602.158 163.567 601.604 163.954C600.496 164.727 599.942 165.501 599.942 166.274C600.496 166.661 601.05 167.047 602.158 167.434C601.604 168.207 601.05 168.594 601.05 168.981C601.05 169.754 603.266 170.914 604.374 170.914C604.928 170.914 605.482 170.914 605.482 170.527C606.59 169.367 608.805 169.367 610.467 169.754C611.575 170.141 613.237 170.141 614.345 170.527C614.899 170.141 616.007 169.754 616.561 169.367C618.223 169.754 618.777 170.528 619.331 170.914C619.331 171.688 618.223 171.688 617.669 172.074C616.007 173.234 614.899 174.394 612.129 174.394C611.575 174.394 611.021 174.781 610.467 175.168C609.359 175.941 608.252 176.328 607.144 177.101C606.59 177.488 606.036 178.261 605.482 178.648C605.482 179.808 607.698 179.421 606.59 180.581C607.144 180.581 607.144 180.968 607.698 180.968C609.359 180.968 611.021 180.581 612.129 179.808C614.899 178.648 617.115 177.488 620.439 177.101C623.763 176.714 626.532 175.554 629.302 174.008C630.41 173.621 631.518 173.234 632.626 172.848C634.288 172.461 635.396 172.461 637.058 172.074C638.166 171.688 638.719 171.688 639.827 171.688C639.827 172.074 639.273 172.461 639.827 172.461C641.489 173.621 642.043 175.554 644.813 176.328C646.475 176.328 648.137 176.328 648.691 175.168C649.245 174.008 649.245 173.234 647.029 171.688C648.137 171.301 648.691 170.914 649.799 171.688C650.353 172.074 650.907 172.461 651.461 172.461C652.015 172.848 652.569 173.234 653.123 173.621C653.123 174.394 653.123 175.168 653.123 175.941C653.123 176.714 653.123 177.488 654.23 178.261C654.784 178.648 654.784 179.035 655.338 179.421C656.446 180.968 657 182.515 657 184.448C656.446 187.155 655.892 189.862 654.784 192.182C653.677 194.889 653.123 197.209 652.569 199.916C652.015 201.076 651.461 202.236 650.907 203.396C649.245 205.716 648.137 208.036 646.475 210.356C645.367 212.676 643.151 214.996 642.043 216.93C639.827 220.023 636.504 222.343 633.734 225.05C632.072 226.983 629.856 228.917 628.748 230.85C627.086 233.17 624.316 235.104 622.101 237.037C619.331 238.971 617.669 240.904 616.007 243.224C616.007 243.611 615.453 243.611 615.453 243.997C614.899 246.318 614.899 246.318 613.237 247.864C613.237 248.251 613.791 248.638 613.791 248.638C614.345 249.411 614.345 250.184 613.237 250.958C612.129 251.731 611.021 252.891 610.467 254.051C609.913 254.825 609.913 255.211 610.467 255.985C611.021 256.758 610.467 257.531 609.913 257.918C608.805 258.692 608.252 259.465 607.144 260.238C604.928 261.785 602.158 263.332 599.388 264.105C598.834 264.105 598.834 264.492 598.28 264.492C596.064 264.878 594.402 266.039 592.741 266.812C591.079 267.972 588.863 268.745 587.201 269.905C584.431 271.452 581.661 272.612 579.999 274.546C577.23 275.319 576.122 276.866 573.906 278.026C571.69 279.186 570.028 280.346 568.366 281.506C565.596 283.439 562.827 285.373 560.057 287.306C557.841 288.853 555.071 290.4 552.855 292.333C552.301 293.106 550.639 293.106 550.085 294.266C549.531 295.04 548.424 295.813 547.316 296.587C546.208 297.36 545.654 298.133 544.546 298.907C543.992 299.293 543.438 299.68 542.884 300.067C540.114 301.613 538.452 303.547 536.236 305.094C531.805 310.894 525.711 313.601 520.725 317.081C517.402 319.014 514.078 320.948 510.754 322.881C510.2 324.041 507.984 324.041 506.876 325.201C506.322 326.361 504.107 326.748 502.999 327.521C501.891 328.295 500.229 329.068 499.121 329.841C498.013 330.615 496.905 331.388 496.351 332.162C494.689 334.095 492.473 335.642 490.257 336.802C486.934 338.735 484.164 340.669 480.84 342.215C480.84 343.762 480.286 344.922 478.624 345.695C475.3 347.629 471.977 349.949 468.653 351.882C468.099 351.882 468.099 352.269 467.545 352.269C464.221 354.203 460.343 356.136 457.02 358.069C454.25 359.616 451.48 361.163 448.71 362.323C447.602 362.323 447.602 363.096 447.048 363.483C446.494 363.096 446.494 363.096 445.94 363.483C445.94 363.87 445.94 363.87 445.94 364.256C442.063 366.576 438.185 368.51 433.753 370.83C428.768 373.537 424.336 376.63 418.796 378.95C417.688 379.337 416.58 380.497 415.472 381.27C414.365 382.044 413.811 382.43 412.703 382.817C411.595 383.591 409.933 383.977 408.271 384.751C404.947 386.684 401.069 388.231 397.192 390.164C393.868 391.711 390.544 393.644 387.22 395.191C385.004 396.351 382.789 397.511 380.019 398.285C378.911 398.671 377.249 399.058 376.141 399.445C375.587 399.831 374.479 399.831 374.479 400.218C373.925 401.378 372.817 401.378 371.709 401.765C369.493 402.538 369.493 402.538 368.386 400.605C368.94 399.831 370.047 399.445 370.601 398.671C371.709 397.511 373.371 397.124 375.587 397.124C376.141 397.124 377.249 397.124 377.803 396.738C380.573 395.191 382.789 394.031 385.004 392.484C385.004 392.484 385.004 392.484 385.558 392.098C385.558 391.324 385.558 390.938 385.004 390.164C384.451 390.164 384.451 390.164 383.897 390.164C379.465 391.711 375.587 393.258 371.155 394.804C368.386 395.964 365.616 396.351 362.846 397.511C360.63 398.285 358.414 399.058 356.198 399.831C355.09 400.218 354.536 400.218 353.429 400.605C353.429 400.218 353.429 400.218 353.429 399.831C353.429 399.445 353.429 399.058 352.875 399.058C352.321 398.671 351.767 398.671 351.213 398.671C350.659 398.671 350.105 399.058 349.551 399.058C346.781 399.831 344.565 400.605 341.241 399.831C341.241 400.218 340.687 400.991 340.687 401.378C336.81 402.538 332.932 403.698 328.5 405.245C327.946 405.632 326.838 405.632 325.73 405.632C324.622 405.632 324.069 405.245 322.961 405.245C322.407 405.245 321.299 405.632 320.191 405.632C320.745 405.245 320.745 404.858 320.745 404.471C321.299 403.698 321.853 403.311 321.299 402.538C320.745 402.151 320.745 401.378 321.299 400.991C322.961 399.831 322.407 399.058 321.853 397.898C321.853 397.511 321.853 397.124 321.299 396.738C320.191 395.964 318.529 395.964 316.867 395.578C316.313 395.578 315.759 395.578 315.205 395.964C313.543 396.351 312.435 396.738 311.327 397.511C310.773 397.511 309.665 397.898 309.112 397.898C308.004 397.898 308.004 397.898 306.896 396.351C308.558 395.191 309.666 394.031 308.558 392.484C307.45 390.938 306.342 389.391 303.018 389.777C304.68 389.004 305.234 388.617 305.788 387.844C306.896 386.684 306.342 385.524 304.68 385.524C303.018 385.524 300.802 385.524 299.14 386.297C297.478 386.684 296.37 387.457 294.709 388.231C294.155 388.231 293.601 388.231 292.493 387.844C292.493 387.457 291.939 387.457 291.939 387.457C292.493 385.911 292.493 384.751 293.047 383.204C290.831 382.817 289.723 381.657 289.169 380.11C289.169 379.724 289.169 378.95 289.723 378.95C290.831 378.177 290.831 377.017 290.831 375.857C290.277 375.47 289.723 375.083 289.169 374.697C284.183 375.47 279.752 376.63 275.32 378.177C274.212 378.564 272.55 379.337 271.442 379.724C270.888 379.337 270.888 378.95 271.442 378.95C272.55 378.564 273.104 378.177 274.212 377.79C275.874 377.017 276.982 376.244 276.982 375.083C276.428 374.697 275.874 373.923 275.32 373.537C275.32 373.15 275.32 372.377 275.874 371.99C276.982 371.217 276.982 370.443 276.428 369.67C276.428 369.283 276.428 368.897 276.428 368.51C277.536 368.123 278.644 367.35 279.198 366.963C280.305 366.576 280.859 365.803 280.859 365.03C280.859 364.256 280.305 363.87 279.198 363.096C277.536 363.483 275.874 363.87 275.32 365.03C274.766 366.19 273.104 366.963 271.442 366.963C269.226 366.963 268.118 368.123 267.564 369.283C266.456 369.67 265.902 369.67 264.795 370.057C263.687 370.057 263.133 370.443 262.025 371.217C260.917 371.99 259.809 372.377 258.147 372.763C254.269 374.31 250.391 375.47 246.514 377.017C245.406 377.404 244.852 378.177 243.744 378.564C242.636 378.95 242.082 379.724 240.974 379.337C240.42 379.337 239.866 379.724 239.866 379.724C238.204 381.657 234.881 382.43 232.665 383.591C228.787 385.524 224.909 387.071 221.031 388.617C219.924 389.004 218.816 389.777 217.708 390.551C217.154 390.938 216.046 391.711 215.492 392.098C214.938 392.484 214.384 392.484 214.384 393.258C214.384 393.644 213.83 394.031 213.276 394.031C211.614 394.418 209.398 394.804 207.182 395.191C204.967 395.578 203.305 395.964 201.643 396.738C200.535 397.124 199.427 397.898 197.765 397.898C197.765 397.511 197.765 397.124 198.319 396.351C194.995 395.578 192.225 394.804 188.902 396.351C188.348 395.964 187.24 395.578 186.686 395.191C185.578 395.191 184.47 395.578 183.916 395.964C183.362 396.351 182.254 396.351 181.7 395.964C180.592 395.578 180.038 395.578 178.93 395.964C177.268 396.351 176.16 396.738 174.499 396.351C173.391 395.578 173.391 394.804 173.945 394.031C174.499 392.484 174.499 391.324 173.391 389.777C172.837 389.004 172.837 388.231 173.391 387.071C174.499 385.137 173.945 384.751 171.729 383.591C171.175 383.204 170.067 382.817 169.513 383.204C168.405 383.204 167.297 383.591 166.743 383.977C166.189 383.977 165.635 384.364 165.081 384.751C161.757 385.911 161.203 385.137 160.096 383.977C160.649 383.204 160.649 383.204 160.096 382.817C156.772 382.044 154.002 382.044 151.232 383.591C150.678 383.977 150.124 383.977 149.57 383.977C147.354 383.977 145.692 384.364 143.477 384.751C140.707 385.524 138.491 385.524 136.275 383.977C135.167 383.591 134.613 383.204 132.951 383.204C131.843 383.204 131.289 382.43 131.843 381.657C132.397 380.497 133.505 379.337 134.613 378.564C135.167 377.79 135.167 377.017 134.613 376.244C134.059 375.47 134.059 374.697 134.059 373.923C133.505 372.377 132.397 371.603 130.182 371.603C127.966 371.603 126.304 371.99 124.088 371.99C122.98 371.99 122.426 371.99 121.318 371.99C119.656 371.603 117.44 371.603 115.778 371.603C115.225 371.603 114.117 371.603 113.009 371.217C110.793 370.057 108.577 369.67 106.915 368.123C105.807 367.35 104.699 366.576 103.037 366.576C102.483 366.576 101.929 366.19 101.375 365.803C100.268 363.87 100.821 362.323 102.483 361.163C103.037 360.389 103.591 359.616 104.145 358.843C104.699 358.069 105.807 357.296 106.915 356.909C108.023 356.136 108.577 355.363 109.131 353.816C105.807 353.816 102.483 353.042 99.7136 354.976C98.6056 354.976 98.0517 354.589 97.4977 354.589C97.4977 353.816 97.4977 353.429 97.4977 353.042C97.4977 351.882 98.0517 350.722 97.4977 349.562C96.9437 348.402 97.4977 347.629 98.0517 346.469C100.821 343.375 104.145 340.669 106.915 337.575C107.469 336.802 109.131 336.415 109.685 335.642C110.793 334.868 110.793 334.095 109.131 333.708C108.577 333.322 107.469 333.322 106.915 333.322C103.591 334.868 102.483 337.962 98.6056 339.122C98.0517 338.348 96.9437 337.575 96.3898 336.802C95.8358 337.188 95.2819 337.188 94.7279 337.575C92.512 339.122 90.8502 340.669 88.6343 341.829C87.5264 342.602 86.9724 343.375 87.5264 344.535C87.5264 345.309 87.5264 345.695 87.5264 346.469C87.5264 346.855 87.5264 347.242 88.0803 347.629C88.6343 348.402 88.0803 348.789 87.5264 349.562C86.9724 349.949 85.8645 349.949 85.3105 349.562C84.2026 348.789 83.0947 348.402 81.9867 347.629C82.5407 346.082 81.4328 344.922 82.5407 343.375C82.5407 342.989 82.5407 342.215 81.9867 341.829C80.8788 340.669 80.8788 339.122 81.4328 337.962C81.4328 337.962 81.4328 337.962 81.4328 337.575C79.7709 336.802 80.3249 335.642 79.2169 334.482C78.663 334.482 78.109 334.095 77.555 334.095C74.2313 333.322 74.2313 333.322 71.4614 334.868C70.9075 334.095 71.4614 333.708 72.0154 333.322C73.6773 332.161 74.7852 331.388 76.4471 330.228C79.2169 328.295 81.9867 326.361 85.3105 324.428C88.6343 322.108 91.9581 320.174 94.7279 317.854C95.2819 317.467 95.2819 317.081 95.2819 317.081C95.2819 316.694 94.7279 316.694 94.1739 316.694C93.066 316.694 91.9581 316.694 90.8502 317.081C90.2962 317.081 89.1883 317.081 88.6343 317.467C88.0803 317.081 88.0803 317.081 88.0803 316.694C87.5264 316.307 86.9724 315.921 86.4184 315.534C85.3105 315.147 84.2026 315.534 83.6486 315.921C82.5407 316.694 81.9867 317.468 80.8788 318.241C80.3249 319.014 79.2169 319.401 78.663 320.174C77.0011 321.334 75.3392 322.108 73.6773 323.268C72.0154 324.428 71.4614 325.975 70.3535 327.135C69.7996 327.908 69.2456 328.681 67.5837 328.681C65.9218 328.295 65.3679 327.521 65.3679 326.748C65.3679 325.975 65.9218 325.588 67.0297 325.201C68.1377 324.428 69.2456 323.654 70.3535 322.881C72.0154 321.721 73.1233 320.174 75.3392 319.788C75.8932 319.401 76.4471 319.014 77.0011 318.628C77.555 318.241 78.109 317.854 78.663 317.467C80.8788 317.081 81.4328 315.921 82.5407 314.761C83.6486 313.987 83.6486 312.827 82.5407 312.054C81.9867 311.281 80.8788 310.507 79.7709 309.734C78.663 308.96 77.555 308.96 75.8932 308.96C74.7852 307.8 74.7852 306.64 75.3392 305.48C75.8932 304.32 77.0011 302.773 79.2169 302.387C80.3249 302 80.8788 301.613 81.9867 301.227C84.2026 300.067 85.8645 299.293 88.6343 299.293C89.1883 299.293 89.7422 298.907 90.2962 298.907C94.1739 297.36 98.0517 295.813 101.929 294.266C104.145 293.493 105.807 292.333 108.023 291.56C113.009 289.626 117.44 287.306 121.872 284.986C124.088 283.826 126.304 282.666 127.966 280.733C128.52 280.346 128.52 279.959 128.52 279.186C125.75 278.799 122.98 278.799 120.764 280.346C119.102 281.119 117.994 282.279 115.778 281.893C116.332 281.506 117.44 280.733 117.994 280.346C119.656 279.572 121.318 278.412 122.98 277.639C125.75 276.092 127.966 274.159 130.735 272.612C132.951 271.452 134.613 269.905 136.275 268.359C137.383 267.199 138.491 266.039 140.153 265.265C141.261 264.492 141.261 264.492 141.815 262.945C141.261 262.558 140.707 262.558 139.599 262.945C135.721 264.492 131.843 266.425 128.52 268.745C126.858 269.905 125.196 270.679 124.088 271.839C123.534 272.225 122.98 272.612 122.426 272.612C120.21 273.386 118.548 274.546 116.332 275.706C113.563 277.252 111.347 278.799 108.023 279.959C107.469 279.572 108.023 279.186 108.023 279.186C110.239 277.639 112.455 276.092 114.671 274.546C115.225 274.159 115.778 273.772 116.886 273.385C119.656 272.225 121.872 270.679 122.98 268.359C122.98 267.972 124.088 267.199 124.642 266.812C124.642 266.425 124.642 266.039 125.196 265.652C124.642 264.878 123.534 265.265 122.98 265.652C121.318 266.425 119.656 267.585 118.548 268.359C117.44 269.519 115.778 270.292 114.117 270.679C113.009 271.065 111.901 271.839 110.793 272.225C110.239 272.612 109.685 272.612 108.577 272.612C109.131 271.452 110.793 270.679 111.347 269.905C112.455 269.132 113.563 268.359 113.563 267.199C113.009 266.812 112.455 266.812 111.901 267.199C110.793 267.585 110.239 267.972 109.685 268.359C108.023 269.132 106.361 270.292 104.145 271.065C103.037 271.452 102.483 271.839 101.375 272.612C99.1596 273.772 97.4977 274.932 95.8358 276.092C91.9581 278.026 89.1883 280.346 85.3105 282.279C84.7566 282.666 83.6486 283.439 82.5407 283.439C81.9867 283.439 81.4328 283.439 81.4328 283.053C80.8788 282.666 80.8788 282.279 80.8788 281.893C80.8788 281.506 81.4328 281.119 81.9867 280.733C85.3105 278.799 87.5264 276.092 90.8502 274.159C91.9581 273.386 93.066 272.612 93.62 271.452C94.1739 270.679 95.2818 269.905 95.8358 269.519C96.9437 268.745 98.6056 267.585 100.268 266.812C101.929 266.039 102.483 264.878 102.483 263.332C101.929 262.945 100.821 262.558 100.268 262.172C99.7136 262.172 99.7136 262.172 99.1596 262.558C94.1739 265.652 89.1883 268.359 84.2026 271.452C83.6486 271.839 83.0947 271.839 82.5407 272.225C80.8788 272.999 80.3249 272.999 78.663 271.452C81.9867 269.132 84.7566 266.812 85.8645 263.332C85.3105 263.332 84.7566 263.332 84.7566 263.332C81.4328 264.105 79.2169 265.652 76.4471 266.812C74.7852 267.585 73.6773 268.359 72.0154 268.745C72.0154 267.585 74.2313 266.812 74.7852 266.039C77.0011 264.105 79.7709 262.558 81.4328 260.238C81.9867 259.465 83.0947 258.692 83.6486 258.305C85.3105 257.145 86.9724 255.985 86.4184 254.051C86.4184 253.278 86.4184 252.505 86.4184 251.731C84.7566 250.184 82.5407 250.184 80.3249 250.958C78.109 251.731 75.8932 252.118 73.6773 252.118C72.5694 252.118 71.4614 252.505 70.3535 252.891C68.6916 253.665 66.4758 253.665 64.8139 252.505C63.706 252.118 62.598 251.345 62.0441 250.958C60.9361 250.184 59.8282 249.798 58.7203 249.024C57.6124 249.411 57.0584 249.411 56.5044 249.798C55.3965 250.571 53.7346 250.571 52.0727 250.184C52.6267 249.411 52.6267 248.638 53.1807 247.864C52.0727 246.704 50.9648 245.544 50.9648 243.997C50.9648 243.224 50.4109 242.837 49.8569 242.064C49.3029 240.904 49.3029 239.744 50.4109 238.971C54.8426 237.424 55.3965 236.264 55.3965 235.877C55.9505 235.104 54.8426 233.944 53.7346 233.944C52.6267 233.944 51.5188 234.33 50.9648 234.717C49.3029 235.104 48.195 235.877 46.5331 236.264C44.8712 237.037 43.2093 237.424 41.5474 237.424C39.8856 237.424 38.2237 237.424 37.6697 236.264C37.1157 235.49 35.4539 235.877 34.3459 235.104C34.8999 233.944 35.4539 232.784 36.5618 232.01C38.2237 230.85 39.3316 229.69 38.7776 228.143C37.6697 227.757 36.5618 226.983 35.4539 226.597C33.238 226.21 32.1301 228.143 29.3603 228.53C30.4682 227.757 31.0222 226.983 31.5761 226.21V225.823C31.0222 223.89 30.4682 223.503 27.6984 223.503C27.1444 223.503 26.5904 223.503 26.0365 223.503C25.4825 223.503 24.3746 223.503 23.8206 223.89C22.7127 223.503 22.7127 222.73 22.7127 221.957C22.7127 221.183 23.2667 220.41 22.7127 220.023C22.1587 218.863 22.1587 218.476 23.2667 217.703C23.8206 217.316 23.8206 216.93 23.8206 216.543C24.3746 215.383 24.9286 214.609 26.5904 213.836C28.8063 213.063 30.4682 211.516 32.1301 210.743C32.1301 210.743 32.1301 210.743 31.5761 210.743C33.238 209.969 34.8999 209.583 36.5618 208.423C38.2237 207.263 39.8856 206.489 41.5474 205.716C44.3173 204.942 45.4252 204.169 45.9792 203.009C46.5331 201.849 48.195 201.462 49.3029 201.076C49.8569 200.689 50.9648 200.689 51.5188 200.302C52.6267 199.915 53.7346 199.142 54.8426 199.142C55.3965 199.142 55.3965 199.142 55.9505 198.755C58.7203 197.595 62.0441 196.435 64.8139 194.889C65.3679 194.502 66.4758 194.115 67.0297 194.115C67.5837 194.115 67.5837 194.115 68.1377 193.729C72.5694 191.022 78.109 189.475 82.5407 186.768C83.0947 186.382 83.6486 185.995 84.2026 185.608C85.8645 185.222 86.9724 184.448 87.5264 183.288C88.6343 182.128 89.7422 181.355 91.9581 180.968C93.62 180.581 94.7279 180.195 95.8358 179.421C97.4977 178.261 99.7136 177.101 101.929 175.941C103.037 175.168 104.145 174.394 104.699 173.234C104.145 172.848 103.591 172.848 103.037 173.234C100.821 174.008 98.6056 174.781 96.3898 175.941C94.7279 176.714 92.512 177.488 90.8502 178.261C90.2962 178.648 88.6343 179.035 87.5264 179.035C85.8645 179.035 84.7566 179.421 83.6486 179.808C82.5407 180.195 81.9867 180.581 80.8788 180.968C80.3249 180.968 79.7709 181.355 79.2169 180.968C78.109 180.581 77.0011 180.968 77.0011 181.741C76.4471 183.288 74.2313 183.675 72.5694 184.448C69.7996 183.675 68.1377 185.608 65.9218 185.608C65.3679 185.608 65.3679 185.995 64.8139 185.995C60.3822 188.702 55.3965 190.635 50.9648 192.955C50.4109 193.342 49.8569 193.342 49.3029 193.342C44.8712 193.342 41.5474 195.275 38.7776 197.209C38.2237 197.595 38.2237 197.595 37.6697 197.982C35.4539 198.369 33.792 199.142 32.1301 199.916C29.3603 201.076 27.1444 202.236 24.3746 203.396C22.7127 204.169 21.0508 204.942 19.9429 206.102C19.9429 206.489 19.3889 206.489 18.281 206.876C17.727 206.489 17.727 206.102 17.1731 205.716C16.0652 204.556 14.9572 203.782 13.2953 203.782C11.6334 203.782 11.6334 203.009 12.1874 202.236C16.6191 199.142 17.1731 198.755 22.1587 196.435C24.9286 194.889 27.6984 193.342 30.4682 192.182C32.1301 191.408 33.792 190.635 35.4539 189.862C36.0078 189.475 36.5618 189.475 37.1157 189.475C37.6697 189.475 38.7776 189.088 39.3316 188.702C40.9935 187.155 43.7633 186.768 45.9792 185.995C47.0871 185.608 47.641 185.221 48.749 184.835C50.4109 183.675 52.6267 182.901 54.8426 182.128C55.9505 181.741 57.6124 180.968 58.7203 180.581C59.2743 180.581 59.2743 180.195 59.8282 179.808C63.706 179.421 66.4758 177.101 69.7996 175.941C71.4614 175.554 73.1233 174.394 74.2313 173.621C77.0011 172.074 79.7709 170.527 83.0947 169.367C86.9724 167.821 90.8502 165.887 94.7279 164.341C95.2819 163.954 96.3898 163.567 96.9437 163.181C100.268 161.247 103.037 159.7 106.915 158.154C108.577 157.38 109.685 156.22 110.239 154.673C110.239 154.287 110.239 153.9 109.685 153.513C109.131 153.127 108.577 152.74 108.023 152.353C100.821 155.06 93.62 158.154 86.4184 160.86C85.3105 161.247 84.7566 161.634 83.6486 162.02C81.4328 163.181 78.663 164.341 75.8932 165.501C73.1233 166.661 70.9075 167.821 68.1377 168.981C67.5837 170.141 67.0297 170.141 66.4758 170.527C60.9361 172.461 55.9505 174.394 50.9648 176.714C48.749 177.875 46.5331 178.648 44.3173 179.421C41.5474 180.581 38.7776 181.741 36.5618 182.901C33.792 184.061 31.5761 185.221 28.8063 186.768C27.1444 187.542 25.4825 188.315 24.3746 189.088C22.1587 187.155 21.6048 187.155 18.835 187.155C17.727 187.155 17.1731 187.155 16.0652 187.542C13.8493 189.088 10.5255 189.475 8.30967 190.635C7.20174 191.408 5.53986 192.182 4.98589 193.342C4.43193 194.115 3.324 194.889 2.77004 195.662C0.000226423 194.502 -0.553737 193.342 1.10815 191.795C1.66212 191.408 2.21608 191.022 2.77004 190.635C3.324 189.862 3.87797 189.475 4.43193 189.475C6.09382 189.088 7.20174 188.702 7.75571 187.928C8.86363 187.155 9.4176 186.382 11.0795 186.382C12.1874 186.382 12.7414 185.221 13.2953 184.835C13.8493 184.061 14.9572 183.675 16.0652 183.675C16.6191 183.675 17.1731 183.288 17.1731 183.288C18.281 182.128 19.9429 181.741 21.6048 180.968C24.3746 180.195 26.5904 178.648 28.8063 177.488C31.5761 176.328 32.684 175.168 33.238 174.008C33.792 173.621 33.792 173.234 34.3459 172.848C36.5618 171.688 39.3316 171.301 42.1014 170.914C43.2093 170.914 44.3173 170.914 44.8712 170.527C46.5331 170.141 48.749 169.754 50.4109 168.594C52.6267 167.434 55.3965 166.274 58.1663 165.501C59.8282 164.727 61.4901 164.341 63.152 163.567C64.8139 162.794 66.4758 162.407 68.1377 161.634C69.7996 160.86 71.4614 160.087 72.5694 158.927C73.1233 158.54 73.1233 157.767 73.1233 157.38C69.7996 156.994 67.5837 158.154 65.3679 158.927C64.8139 159.314 63.706 159.7 63.152 159.7C62.598 160.087 62.0441 160.087 61.4901 160.087C61.4901 159.314 61.4901 158.54 61.4901 158.154C63.152 157.38 64.8139 156.607 66.4758 155.833C67.5837 155.06 69.7996 155.447 70.9075 154.287C73.1233 153.9 74.2313 152.353 76.4471 151.58C78.663 150.807 80.8788 150.42 82.5407 149.647C84.2026 148.873 85.8645 148.1 87.5264 147.326C88.0803 146.94 88.6343 146.553 89.1883 146.553C91.4041 146.166 92.512 145.006 93.066 143.46C92.512 143.073 92.512 142.686 91.9581 141.913C92.512 140.753 93.62 140.366 94.7279 139.593C95.2819 139.206 95.8358 138.819 96.3898 138.819C97.4977 138.433 97.4977 137.659 96.9437 136.886C93.066 136.113 93.066 136.113 90.8502 138.819C89.7422 139.206 88.0803 139.593 86.9724 139.979ZM592.741 163.954V164.341V163.954C592.741 163.954 593.295 163.954 592.741 163.954C593.295 163.567 593.295 163.567 593.295 163.567L592.741 163.954ZM484.718 30.5478C483.61 30.5478 483.056 30.5478 481.948 30.5478C481.394 30.5478 480.84 30.9345 480.84 31.3212C480.84 31.7079 481.394 31.7079 481.948 31.7079C483.056 31.7079 484.164 31.7079 484.718 30.5478C485.272 30.5478 485.272 30.5478 485.272 30.1611C485.272 30.5478 484.718 30.5478 484.718 30.5478ZM86.9724 338.735C87.5264 338.348 88.0803 338.348 88.6343 337.962C90.8502 336.415 92.512 335.255 94.7279 333.708C97.4977 331.775 99.7136 329.455 103.591 328.295C104.699 327.908 105.807 326.748 106.915 325.975C107.469 325.588 108.023 324.815 108.577 324.428C111.347 322.494 114.117 320.948 117.44 319.014C117.994 318.628 117.994 318.241 118.548 317.467C117.994 317.467 116.886 317.467 116.886 317.467C116.332 317.854 115.778 318.241 115.225 318.628C114.671 319.401 114.117 319.788 113.009 320.174C111.901 320.561 111.347 320.948 110.239 321.334C108.577 322.108 106.915 322.881 105.253 324.041C104.699 325.588 103.037 325.975 101.375 326.748C100.821 326.748 100.268 327.135 100.268 327.521C96.3898 330.228 92.512 332.935 89.1883 335.642C88.6343 336.028 88.0803 336.802 87.5264 337.575C86.9724 337.962 86.9724 338.348 86.9724 338.735C86.9724 338.735 86.9724 339.122 86.9724 338.735C86.9724 339.122 86.9724 338.735 86.9724 338.735ZM284.183 369.283C285.291 368.897 285.845 368.51 286.953 368.123C288.061 368.123 288.615 367.736 289.169 367.35C293.047 365.416 297.478 364.256 301.91 363.096C302.464 363.096 303.018 362.71 303.572 362.323C304.68 361.549 305.788 361.163 306.896 360.389C308.004 359.616 308.004 359.616 306.896 358.069C306.342 358.069 305.234 358.069 304.68 358.069C304.126 358.069 303.572 358.069 303.572 358.456C303.018 359.616 300.802 360.003 299.694 360.776C295.262 362.323 290.831 363.87 286.399 365.416C285.291 365.803 284.737 366.19 283.629 366.576C283.075 366.963 282.521 366.963 281.967 367.35C281.413 367.736 281.413 368.123 281.967 368.51C283.075 368.897 283.629 369.283 284.183 369.283ZM273.658 76.5632C274.766 75.7899 276.428 75.0165 277.536 74.2431C278.09 73.8565 278.644 73.4698 279.198 73.4698C282.521 72.6964 284.737 70.763 286.953 69.2163C288.061 68.8296 288.615 68.0562 289.723 67.6695C293.047 66.8961 295.816 64.9627 298.586 63.416C300.248 62.6426 301.91 61.4826 303.572 60.3225C304.126 59.9358 304.126 59.5491 303.572 59.1625C303.572 58.7758 302.464 58.3891 301.91 58.7758C300.248 59.1625 298.032 59.9358 296.37 60.7092C295.262 61.4826 293.601 62.2559 291.939 63.0293C290.277 63.8027 289.169 64.9627 287.507 65.3494C286.953 65.3494 285.845 66.1228 285.291 66.5095C284.183 67.6695 283.075 68.0562 281.413 68.4429C280.305 68.8296 279.751 68.8296 278.644 69.6029C276.982 70.763 274.766 71.923 273.104 73.0831C272.55 73.4698 271.996 73.8565 271.442 73.8565C268.118 75.0165 265.348 76.1766 262.025 77.3366C259.809 78.11 257.593 79.27 255.377 80.0434C253.715 80.8168 251.499 81.5901 250.391 82.7502C248.73 83.9102 247.068 84.6836 245.406 85.457C242.636 87.0037 239.866 88.5505 237.096 89.7105C234.881 90.8706 233.219 91.6439 231.003 92.4173C229.895 92.804 228.787 93.1907 228.787 93.964C228.233 94.3507 227.679 94.7374 227.125 94.7374C223.801 95.8975 219.924 96.6708 217.708 98.9909C217.154 100.538 216.6 100.538 216.046 100.924C213.276 102.084 210.506 103.631 207.736 104.791C207.182 105.178 206.628 105.565 206.074 105.951C206.628 106.338 207.182 106.725 207.736 106.725C210.506 106.338 212.722 105.565 214.938 104.405C218.816 102.471 222.139 100.924 226.571 99.3776C229.895 98.2176 232.665 97.0575 234.881 95.1241C236.542 93.5774 238.758 92.804 241.528 92.4173C242.636 92.4173 243.744 92.0306 244.298 91.2573C245.406 90.4839 245.96 90.4839 247.068 90.0972C249.284 89.3238 251.499 88.5505 253.161 87.7771C254.823 86.617 257.039 85.457 258.701 84.2969C260.917 83.1369 263.687 81.9768 265.902 80.4301C268.672 78.8834 270.888 77.7233 273.658 76.5632ZM96.9437 140.753C97.4977 141.913 98.0517 141.913 99.1596 141.913C101.929 141.526 105.253 141.14 107.469 139.206C108.577 138.046 110.239 137.273 112.455 137.273C115.225 137.273 116.332 136.113 117.994 134.953C118.548 134.566 118.548 134.179 118.548 134.179C118.548 133.793 118.548 133.406 118.548 133.406C117.994 133.406 117.44 133.019 117.44 133.019C114.117 134.179 110.793 135.339 107.469 136.499C106.915 136.886 106.361 136.886 105.807 136.886C102.483 138.046 99.7136 139.206 96.9437 140.753ZM118.548 149.26C120.21 150.42 120.21 150.42 121.318 150.42C125.196 150.42 129.074 149.26 132.397 147.713C132.951 147.326 133.505 146.94 134.059 146.166C134.613 145.78 134.613 145.393 134.059 145.006C133.505 144.62 133.505 144.62 132.951 144.233C130.735 145.006 128.52 145.393 126.304 146.166C122.98 146.94 120.764 148.1 118.548 149.26ZM282.521 361.55C284.183 363.483 284.183 363.483 286.953 362.71C288.615 362.323 290.277 361.936 291.939 361.163C293.601 360.389 295.816 359.616 297.478 358.843C298.586 358.456 299.14 357.683 298.586 357.296C298.032 356.909 296.924 356.523 295.816 356.909C295.262 356.909 295.262 357.296 294.709 357.296C293.601 357.683 292.493 358.069 290.831 358.843C289.169 359.616 287.507 360.389 285.291 360.003C284.183 360.389 283.629 360.776 282.521 361.55ZM123.534 131.086C124.088 131.472 124.642 131.472 125.196 131.859C127.412 132.246 129.074 131.859 130.735 131.086C131.289 130.699 132.397 130.312 132.951 130.312C134.613 130.312 135.721 129.539 136.829 129.152L137.383 128.766C137.383 128.379 137.383 127.606 137.383 127.219C136.829 127.219 135.721 127.219 135.721 127.219C133.505 127.992 131.843 128.379 129.628 129.152C128.52 129.539 126.858 129.926 125.75 130.699C124.642 130.312 124.088 130.699 123.534 131.086ZM109.131 349.949C110.239 350.722 111.347 351.496 112.455 351.882C114.671 351.496 115.225 350.336 115.778 349.176C115.778 348.402 115.778 347.629 114.671 347.242C113.563 346.856 112.455 346.469 111.347 346.855C110.239 347.629 109.685 348.789 109.131 349.949ZM128.52 322.881C126.304 323.654 124.642 323.654 123.534 324.815C122.426 325.588 121.318 326.361 120.21 326.361C117.44 326.361 115.225 327.521 113.563 328.681C113.563 328.681 113.563 329.068 113.009 329.455C113.563 329.455 114.117 329.455 114.117 329.455C116.332 328.681 117.994 328.295 119.656 327.521C120.764 327.135 121.872 326.361 122.98 326.361C124.642 325.975 125.75 325.201 127.412 324.428C127.966 324.041 127.966 323.654 128.52 322.881ZM290.277 62.2559C288.061 61.8693 286.399 61.8693 284.737 62.6426C283.629 63.416 283.075 64.1894 283.075 65.3494C283.629 65.3494 284.737 65.3494 285.291 64.9627C286.953 64.576 288.061 63.8027 290.277 62.2559ZM454.25 37.1215C452.588 36.7348 450.926 37.1215 449.818 37.8948C449.264 37.8948 449.818 38.6682 449.818 39.0549C449.818 39.4416 450.372 39.8282 450.926 39.4416C452.034 39.0549 453.142 38.2815 454.25 37.1215ZM465.329 39.0549C465.329 38.6682 464.221 38.2815 463.667 38.2815C463.113 38.6682 462.559 39.0549 462.005 39.4416C461.451 39.8282 462.005 40.6016 462.559 40.6016C464.221 40.9883 465.883 40.2149 465.329 39.0549ZM151.232 120.645C149.57 120.259 148.462 121.032 146.8 121.419C146.246 121.419 145.139 121.805 145.139 122.192C145.692 122.965 146.246 122.192 146.8 122.192C149.016 122.579 150.124 121.805 151.232 120.645ZM502.999 136.499C501.891 136.886 501.337 136.886 500.783 137.273V138.046C500.783 138.046 501.337 138.433 501.891 138.433C502.445 138.433 502.445 137.659 502.999 136.499ZM634.288 175.941C634.842 176.328 635.396 176.714 635.95 176.714C636.504 176.714 637.058 176.714 637.058 176.328C637.058 175.941 637.058 175.554 637.058 175.554C637.058 175.554 636.504 175.168 635.95 175.168C635.396 175.168 635.396 175.554 634.288 175.941ZM123.534 127.992C122.426 127.992 121.318 127.992 120.21 129.152C122.426 128.766 122.426 128.766 123.534 127.992ZM144.031 125.285C142.923 124.512 141.815 124.899 141.261 125.285C141.261 125.285 141.261 125.672 141.261 126.059C141.261 126.059 141.815 126.446 142.369 126.446C142.923 126.059 143.477 125.672 144.031 125.285ZM205.52 95.5108C205.52 95.1241 205.52 95.1241 204.967 95.1241H204.413V95.5108C204.967 95.5108 205.52 95.5108 205.52 95.5108ZM293.047 373.537L292.493 373.923C292.493 373.923 292.493 373.923 293.047 373.923C293.047 373.923 293.601 373.923 293.047 373.537C293.601 373.537 293.601 373.537 293.047 373.537ZM500.783 18.5606C500.783 18.5606 500.229 18.5606 500.229 18.9473V19.334H500.783C500.783 18.9473 500.783 18.9473 500.783 18.5606ZM460.897 40.2149C460.897 40.6016 460.343 40.6016 460.897 40.2149C460.343 40.6016 460.343 40.6016 460.343 40.6016H460.897C460.897 40.6016 460.897 40.6016 460.897 40.2149ZM118.548 263.718H117.994C117.994 263.718 117.994 263.718 117.44 263.718C117.44 263.718 117.994 263.718 118.548 263.718C117.994 263.718 117.994 263.718 118.548 263.718Z" fill="#211A44"/>
<path d="M25.4825 163.954C23.2666 165.114 21.6047 166.274 18.8349 166.274C17.727 166.274 17.173 167.048 16.0651 167.434C13.2953 168.594 10.5255 169.754 7.20171 170.914C6.09378 171.301 5.53982 172.074 3.87793 171.688V171.301C7.20171 169.368 10.5255 167.821 13.8493 165.501C14.9572 165.501 16.6191 165.888 17.727 165.114C20.4968 164.341 22.7127 163.954 25.4825 163.954Z" fill="#211A44"/>
<path d="M504.66 1.54688C505.214 1.54688 505.768 1.54688 505.768 1.54688C507.43 2.70693 506.322 4.64035 507.984 5.8004C506.876 7.34714 506.876 8.89387 505.214 10.0539C504.66 9.66724 504.66 9.66724 504.66 9.28056C505.768 6.96045 504.66 4.25366 504.66 1.54688Z" fill="#211A44"/>
<path d="M479.178 6.96045C481.948 6.96045 484.163 7.34706 485.825 7.34706C486.933 8.12027 486.933 8.50688 485.825 9.28009C484.163 9.28009 482.502 9.28009 480.84 9.28009C480.84 8.89349 480.286 8.12027 479.178 6.96045Z" fill="#211A44"/>
<path d="M550.085 88.1641C550.085 89.7105 550.085 90.8703 548.977 92.0301C547.869 91.2569 546.761 90.4837 545.1 90.0971C546.208 88.1641 548.423 88.9373 550.085 88.1641Z" fill="#211A44"/>
<path d="M90.8497 351.496C90.8497 351.496 90.8497 351.109 90.2957 351.109C90.2957 350.722 89.7418 349.949 90.8497 349.562C91.4036 349.562 91.9576 349.562 91.9576 349.562C93.0655 349.949 93.0655 350.336 92.5116 351.109C91.9576 351.882 91.4036 351.882 90.8497 351.496Z" fill="#211A44"/>
<path d="M471.422 10.4404C472.53 10.827 473.084 11.2136 474.192 11.9869C472.53 11.9869 471.422 11.9869 470.315 11.9869C469.761 10.827 470.869 10.827 471.422 10.4404Z" fill="#211A44"/>
<path d="M100.267 359.616C100.821 360.389 100.821 360.776 100.821 361.163C100.267 361.549 99.7132 361.936 99.1592 361.549C98.6053 360.776 99.1592 360.003 100.267 359.616Z" fill="#211A44"/>
<path d="M190.563 100.151C191.671 99.3777 192.779 98.9911 193.887 98.6045L194.441 98.9911C194.441 99.3777 193.887 99.7643 193.887 100.538C192.225 100.538 191.671 100.151 190.563 100.151Z" fill="#211A44"/>
<path d="M303.018 52.5889C302.464 53.7487 301.356 53.7487 299.694 54.5219C300.802 53.3621 301.91 52.9755 303.018 52.5889Z" fill="#211A44"/>
<path d="M198.873 97.444C198.319 97.8306 197.211 97.8306 196.103 97.8306C197.211 97.444 197.765 97.0574 198.319 96.2842C198.873 97.0574 198.873 97.444 198.873 97.444Z" fill="#211A44"/>
<path d="M554.517 122.965C555.625 122.965 556.179 123.352 556.179 124.125C556.179 124.125 556.179 124.512 555.625 124.512C555.071 124.512 555.071 124.512 555.071 124.125C554.517 123.739 554.517 123.352 554.517 122.965Z" fill="#211A44"/>
<path d="M190.563 402.152C190.009 402.538 190.009 402.925 188.901 402.538V402.152C189.455 401.765 190.009 401.765 190.563 402.152Z" fill="#211A44"/>
<path d="M546.761 93.1909C546.761 93.9641 546.761 94.7373 545.653 95.124C545.099 94.3507 546.207 93.9641 546.761 93.1909C546.207 93.5775 546.761 93.5775 546.761 93.1909Z" fill="#211A44"/>
<path d="M597.726 152.354C597.726 151.967 597.726 151.194 598.28 150.807C598.28 151.58 597.726 151.58 597.726 152.354Z" fill="#211A44"/>
<path d="M75.3389 342.215C75.8928 342.215 75.8928 342.215 76.4468 342.215V342.601H75.8928C75.3389 342.601 75.3389 342.601 75.3389 342.215Z" fill="#211A44"/>
<path d="M546.207 85.457C546.761 85.8436 546.761 86.2302 546.761 86.2302C546.207 86.6168 545.653 86.2302 545.653 85.8436C545.653 85.8436 545.653 85.457 546.207 85.457Z" fill="#211A44"/>
<path d="M58.166 162.021C58.166 161.247 58.72 160.861 59.2739 160.861C59.2739 161.247 58.72 161.634 58.166 162.021Z" fill="#211A44"/>
<path d="M264.24 67.6699C264.24 68.0565 264.24 68.8297 263.132 68.8297C263.686 68.4431 264.24 68.0565 264.24 67.6699Z" fill="#211A44"/>
<path d="M59.2739 160.86C59.8279 160.86 60.3819 160.474 60.9358 160.474C60.9358 160.474 60.3819 160.86 59.2739 160.86Z" fill="#211A44"/>
<path d="M642.597 172.073V171.688C642.597 171.688 642.597 171.688 643.151 171.688C643.151 171.688 643.151 172.073 642.597 172.073Z" fill="#211A44"/>
<path d="M642.597 172.075C642.043 172.075 641.489 172.461 640.935 172.461C641.489 172.461 642.043 172.075 642.597 172.075Z" fill="#211A44"/>
<path d="M116.886 280.346C116.886 280.732 116.886 280.732 116.886 280.346C116.332 280.732 116.332 280.732 116.332 280.732C116.886 280.732 116.886 280.732 116.886 280.346Z" fill="#211A44"/>
<path d="M339.025 42.1475C339.025 42.1475 339.025 41.7617 339.579 41.7617C339.579 41.7617 339.579 42.1475 340.133 42.1475C339.579 42.1475 339.579 42.1475 339.025 42.1475Z" fill="#211A44"/>
<path d="M92.5117 348.789C91.9577 348.789 91.9577 348.789 92.5117 348.789C91.9577 348.789 91.9577 348.402 92.5117 348.789C92.5117 348.402 92.5117 348.402 92.5117 348.789Z" fill="#211A44"/>
<path d="M304.125 52.2026C304.125 51.8159 304.125 51.8159 304.125 52.2026C304.679 51.8159 304.679 51.8159 304.679 52.2026C304.679 51.8159 304.125 51.8159 304.125 52.2026Z" fill="#211A44"/>
<path d="M269.226 380.11C269.226 380.11 269.78 380.11 269.226 380.11C269.78 380.11 269.78 380.497 269.226 380.11C269.78 380.497 269.78 380.497 269.226 380.11C269.226 380.497 269.226 380.11 269.226 380.11Z" fill="#211A44"/>
<path d="M543.992 97.8307C543.992 97.4441 544.546 97.0575 544.546 96.6709C544.546 97.0575 543.992 97.4441 543.992 97.8307Z" fill="#211A44"/>
<path d="M389.99 35.1883C389.99 34.8016 390.544 34.8016 390.544 34.415C390.544 34.8016 389.99 34.8016 389.99 35.1883Z" fill="#211A44"/>
<path d="M314.097 47.1753C314.097 47.1753 313.543 47.1753 314.097 47.1753C313.543 47.5619 314.097 47.5619 314.097 47.1753C314.097 47.5619 314.097 47.5619 314.097 47.1753Z" fill="#211A44"/>
<path d="M304.126 52.2021C303.572 52.5888 303.572 52.5888 303.018 52.9754C303.572 52.5888 303.572 52.2021 304.126 52.2021Z" fill="#211A44"/>
<path d="M296.924 56.0684C297.478 56.0684 297.478 55.6826 298.032 55.6826C297.478 55.6826 297.478 55.6826 296.924 56.0684Z" fill="#211A44"/>
<path d="M294.154 57.6155C294.708 57.2289 294.708 57.2289 295.262 56.8423C294.708 57.2289 294.154 57.2289 294.154 57.6155Z" fill="#211A44"/>
<path d="M280.305 62.6431V63.0289C279.197 63.0289 280.305 63.0289 280.305 62.6431Z" fill="#211A44"/>
<path d="M528.481 85.4574L527.927 85.844C527.927 85.4574 527.927 85.4574 527.927 85.0708C527.927 85.4574 528.481 85.4574 528.481 85.4574Z" fill="#211A44"/>
<path d="M596.618 152.74C597.172 152.353 597.172 152.353 597.726 151.967C597.172 152.353 597.172 152.74 596.618 152.74Z" fill="#211A44"/>
<path d="M55.9504 248.638L55.3965 249.024L55.9504 248.638Z" fill="#211A44"/>
<path d="M74.2312 267.585L73.6772 267.971C73.6772 267.971 74.2312 267.971 74.2312 267.585Z" fill="#211A44"/>
<path d="M73.1233 267.972L72.5693 268.358C73.1233 268.358 73.1233 268.358 73.1233 267.972Z" fill="#211A44"/>
<path d="M24.9282 297.746C25.4822 297.36 25.4822 297.36 24.9282 297.746C26.0361 297.746 25.4822 297.746 24.9282 297.746Z" fill="#211A44"/>
<path d="M24.3745 298.133L24.9285 297.747C24.9285 297.747 24.3745 297.747 24.3745 298.133Z" fill="#211A44"/>
<path d="M446.494 363.87C445.94 364.257 445.94 364.257 445.386 364.643C445.386 364.257 445.386 364.257 445.386 363.87C445.94 363.87 446.494 363.87 446.494 363.87Z" fill="#211A44"/>
<path d="M388.882 39.0543C388.882 38.6685 388.882 38.6685 389.436 38.6685C389.436 38.6685 389.436 38.6685 389.436 39.0543H388.882Z" fill="#211A44"/>
</svg>
