<svg width="46" height="68" viewBox="0 0 46 68" fill="none" xmlns="http://www.w3.org/2000/svg">
<g clip-path="url(#clip0_132_2445)">
<path d="M11.4157 67.4422C17.6245 67.4422 22.6635 62.4396 22.6635 56.2756V45.1089H11.4157C5.20696 45.1089 0.167969 50.1116 0.167969 56.2756C0.167969 62.4396 5.20696 67.4422 11.4157 67.4422Z" fill="#FFD6E2"/>
<path d="M0.167969 33.9425C0.167969 27.7785 5.20696 22.7759 11.4157 22.7759H22.6635V45.1092H11.4157C5.20696 45.1092 0.167969 40.1065 0.167969 33.9425Z" fill="#C3C7DB"/>
<path d="M0.167969 11.609C0.167969 5.44505 5.20696 0.442383 11.4157 0.442383H22.6635V22.7757H11.4157C5.20696 22.7757 0.167969 17.773 0.167969 11.609Z" fill="#E8C2CA" fill-opacity="0.25"/>
<path d="M22.6636 0.442383H33.9113C40.1201 0.442383 45.1591 5.44505 45.1591 11.609C45.1591 17.773 40.1201 22.7757 33.9113 22.7757H22.6636V0.442383Z" fill="#5C5692"/>
<path d="M45.1591 33.9425C45.1591 40.1065 40.1201 45.1092 33.9113 45.1092C27.7026 45.1092 22.6636 40.1065 22.6636 33.9425C22.6636 27.7785 27.7026 22.7759 33.9113 22.7759C40.1201 22.7759 45.1591 27.7785 45.1591 33.9425Z" fill="#E8C2CA"/>
</g>
<defs>
<clipPath id="clip0_132_2445">
<rect width="45" height="67" fill="white" transform="translate(0.163574 0.442383)"/>
</clipPath>
</defs>
</svg>
