<svg width="75" height="74" viewBox="0 0 75 74" fill="none" xmlns="http://www.w3.org/2000/svg">
<g clip-path="url(#clip0_132_2778)">
<path d="M47.2559 62.6111H27.7441C25.3857 62.6111 23.4668 64.5045 23.4668 66.8314V71.3986C23.4668 72.8439 24.668 74.0146 26.1182 74.0146H48.8525C50.3174 74.0146 51.5039 72.8439 51.5039 71.3986V66.8314C51.5186 64.49 49.5996 62.6111 47.2559 62.6111ZM35.3467 41.3217C35.3467 42.4924 36.3135 43.4463 37.5 43.4463C38.6865 43.4463 39.6533 42.4924 39.6533 41.3217C39.6533 40.1654 38.7012 39.1826 37.4854 39.1826C36.2988 39.1971 35.3467 40.151 35.3467 41.3217Z" fill="#E8C2CA"/>
<path d="M38.5253 18.4709C38.452 18.3698 38.2909 18.4131 38.2909 18.5432V37.737C39.9608 38.0983 41.2352 39.558 41.2352 41.3358C41.2352 43.3592 39.5653 44.9924 37.5145 44.9924C35.6102 44.9924 34.1161 43.6194 33.8378 41.9284C33.5155 39.9049 34.8632 38.1272 36.7235 37.737V18.5432C36.7235 18.4131 36.5477 18.3698 36.4892 18.4709L19.8925 43.7928C18.6913 45.6284 19.1454 48.1143 20.9179 49.444C25.2684 52.6815 27.9345 56.4971 29.0331 61.0643H45.9667C47.0653 56.4971 49.7313 52.6815 54.0819 49.444C55.869 48.1143 56.3231 45.6284 55.1073 43.7928L38.5253 18.4709Z" fill="#E8C2CA"/>
<path d="M69.7559 32.2449C67.6758 20.2488 58.8867 10.493 47.3437 6.89414C53.1738 6.90859 58.9014 6.92305 63.9697 6.92305C64.3799 9.55351 66.6797 11.5625 69.4482 11.5625C72.5098 11.5625 75 9.10547 75 6.08476C75 3.06406 72.5098 0.607031 69.4482 0.607031C66.6357 0.607031 64.3066 2.68828 63.9551 5.37656C59.1504 5.36211 51.7236 5.34766 43.7549 5.3332V3.15078C43.7549 1.41641 42.334 0 40.5762 0H34.4238C32.666 0 31.2305 1.41641 31.2305 3.15078V5.3332C20.9912 5.31875 14.7949 5.31875 11.0156 5.3332C10.6494 2.67383 8.33496 0.621484 5.55176 0.621484C2.49023 0.621484 0 3.07852 0 6.08476C0 9.10547 2.49023 11.5625 5.55176 11.5625C8.33496 11.5625 10.6494 9.52461 11.0303 6.87969C15.0439 6.86523 20.9766 6.86523 27.7295 6.86523C16.1572 10.4496 7.32422 20.2199 5.24414 32.2449C2.31445 32.4039 0 34.7887 0 37.7082C0 40.7289 2.49023 43.1859 5.55176 43.1859C8.61328 43.1859 11.1035 40.7289 11.1035 37.7082C11.1035 35.1211 9.27246 32.9531 6.81152 32.3895C9.02344 19.9742 18.7793 10.0883 31.2451 7.57344V9.20664C31.2451 10.941 32.6807 12.3574 34.4385 12.3574H40.5762C42.334 12.3574 43.7695 10.941 43.7695 9.20664V7.55898C56.2353 10.0738 66.0059 19.9598 68.2031 32.375C65.7568 32.9387 63.9111 35.1066 63.9111 37.6937C63.9111 40.7144 66.4014 43.1715 69.4629 43.1715C72.5244 43.1715 75.0146 40.7144 75.0146 37.6937C75 34.7887 72.6855 32.4039 69.7559 32.2449Z" fill="#E8C2CA"/>
</g>
<defs>
<clipPath id="clip0_132_2778">
<rect width="75" height="74" fill="white"/>
</clipPath>
</defs>
</svg>
