<svg width="32" height="31" viewBox="0 0 32 31" fill="none" xmlns="http://www.w3.org/2000/svg">
<path fill-rule="evenodd" clip-rule="evenodd" d="M26.3921 15.3839C26.3921 10.0701 21.8974 5.77313 16.3513 5.77313C10.8051 5.77313 6.31045 10.0753 6.31045 15.3839C6.31045 20.6925 10.8051 24.9895 16.3513 24.9895C21.8974 24.9895 26.3921 20.6925 26.3921 15.3839ZM26.2014 4.46422C25.3079 4.46422 24.5833 5.16298 24.5833 6.01298C24.5833 6.86299 25.3024 7.55656 26.2014 7.55656C27.1003 7.55656 27.8194 6.8682 27.8194 6.01298C27.8194 5.15776 27.0894 4.46422 26.2014 4.46422ZM8.14648 2.24272H24.5561C27.5961 2.24272 30.075 4.62065 30.075 7.52006V23.2321C30.075 26.142 27.5961 28.5147 24.5561 28.5147H8.14648C5.1119 28.5147 2.62758 26.142 2.62758 23.2321V7.52006C2.62758 4.62065 5.1119 2.24272 8.14648 2.24272ZM24.5561 0.485352H8.14648C4.10401 0.485352 0.786133 3.65593 0.786133 7.52528V23.2373C0.786133 27.1171 4.09856 30.2825 8.14648 30.2825H24.5561C28.6094 30.2825 31.9164 27.1171 31.9164 23.2373V7.52528C31.9164 3.65593 28.6094 0.485352 24.5561 0.485352ZM8.39707 15.3839C8.39707 11.1756 11.9601 7.76517 16.3513 7.76517C20.7424 7.76517 24.3054 11.1756 24.3054 15.3839C24.3054 19.5922 20.7479 22.9975 16.3513 22.9975C11.9547 22.9975 8.39707 19.587 8.39707 15.3839Z" fill="#211A44"/>
</svg>
