<svg width="29" height="28" viewBox="0 0 29 28" fill="none" xmlns="http://www.w3.org/2000/svg">
<path d="M0.583984 14.1135V27.432H7.21429V13.0445V9.30029H0.583984V14.1135Z" fill="#211A44"/>
<path d="M3.90178 0.236816C2.07123 0.236816 0.589355 1.66045 0.589355 3.4074C0.589355 5.15434 2.07123 6.58317 3.90178 6.58317C5.73233 6.58317 7.21421 5.16477 7.21421 3.4074C7.21421 1.65003 5.73233 0.236816 3.90178 0.236816Z" fill="#211A44"/>
<path d="M28.8533 14.8697C28.4066 11.454 26.7667 9.30029 21.9397 9.30029C19.074 9.30029 17.1509 10.3172 16.3663 11.746H16.2846V9.30029H11V27.432H16.5243V18.447C16.5243 16.0795 16.9929 13.7798 20.0547 13.7798C23.1165 13.7798 23.3126 16.4862 23.3126 18.5982V27.432H29.0004V17.4718C29.0004 16.5436 28.9623 15.6727 28.8533 14.8697Z" fill="#211A44"/>
</svg>
