<svg width="56" height="69" viewBox="0 0 56 69" fill="none" xmlns="http://www.w3.org/2000/svg">
<path d="M30.0227 0.608887C30.0711 4.6793 30.1231 8.75273 30.1646 12.8231C30.1819 14.4326 30.2096 16.0451 30.1508 17.6545C30.1196 18.503 30.4935 18.8261 31.4247 19.113C33.7926 19.8437 36.0705 20.7949 38.4246 21.5649C38.9334 21.7309 39.605 21.5286 40.197 21.4743C40.287 21.4652 40.3528 21.3293 40.4463 21.272C43.8942 19.1673 45.0609 16.3138 44.5312 12.6933C44.23 10.649 44.4828 10.6158 46.8645 10.6068C49.1147 10.6007 51.3649 10.637 53.6151 10.5977C54.8787 10.5766 55.5225 10.8936 55.4672 12.1407C55.3737 14.3027 55.3806 16.4678 55.4672 18.6298C55.5122 19.7893 54.986 20.1819 53.7397 20.049C53.3416 20.0068 52.9158 20.1064 52.5315 20.0339C47.8061 19.1401 44.8913 21.5468 42.1253 24.3912C47.4738 31.0132 47.5015 37.6835 41.9349 44.4685C43.6969 45.8545 45.4209 47.2495 47.2072 48.5782C47.5015 48.7986 48.0692 48.7926 48.5158 48.8016C50.0736 48.8258 51.6314 48.8107 53.1893 48.8107C54.7933 48.8107 55.5999 49.4881 55.6091 50.8429C55.616 52.8056 55.5676 54.7683 55.6229 56.7311C55.6541 57.8634 55.2283 58.3828 53.8332 58.3435C51.2956 58.2771 48.7547 58.2892 46.2171 58.3405C44.9813 58.3647 44.3616 58.0114 44.4828 56.87C44.5382 56.3717 44.3893 55.8463 44.507 55.3632C45.5282 51.1901 42.5095 48.9013 39.6397 46.9657C36.6036 47.9078 33.7961 48.7352 31.0405 49.6773C30.632 49.8162 30.2062 50.4745 30.2096 50.8942C30.22 56.7794 30.3066 62.6646 30.3723 68.5498H26.2181C26.2285 62.6646 26.2597 56.7794 26.2147 50.8942C26.2147 50.4745 25.7854 49.8253 25.3734 49.6803C22.6213 48.7261 19.8207 47.8776 16.6496 46.8751C15.4484 47.941 13.8317 49.2968 12.3362 50.7462C11.9692 51.1025 11.8654 51.7518 11.8446 52.2741C11.7823 53.8323 11.7857 55.3934 11.8307 56.9515C11.8584 57.8906 11.488 58.3435 10.3456 58.3315C7.635 58.2982 4.92092 58.3073 2.2103 58.3254C1.17521 58.3345 0.780566 57.9329 0.790951 57.0451C0.82557 54.6808 0.822108 52.3164 0.790951 49.9521C0.780566 49.1217 1.1406 48.7684 2.11337 48.8016C3.3804 48.8439 4.66474 48.705 5.91793 48.8318C8.17158 49.0643 9.92673 48.4574 11.3911 46.9476C12.2427 46.0719 13.8698 45.4348 14.0705 44.5108C14.2609 43.6472 12.9905 42.5631 12.4262 41.5516C9.449 36.2099 9.6394 30.986 13.2501 25.904C13.579 25.442 13.9252 24.9861 14.3544 24.4063C12.6166 23.0233 10.948 21.6494 9.20667 20.351C8.86741 20.0973 8.24774 20.0611 7.75616 20.0521C5.911 20.0188 4.06238 19.9977 2.21723 20.0521C1.12675 20.0913 0.610936 19.7894 0.624783 18.7929C0.659401 16.4799 0.65594 14.1638 0.628245 11.8508C0.617859 10.9359 1.11983 10.6037 2.10991 10.6098C4.82053 10.6279 7.5346 10.6309 10.2452 10.6098C11.3288 10.6007 11.8584 10.9661 11.7615 11.9565C11.713 12.4548 11.8584 12.9802 11.7407 13.4633C10.7126 17.6273 13.6794 19.9433 16.5735 21.8699C19.6441 20.8673 22.4932 19.9917 25.273 18.9741C25.7473 18.7989 26.2043 18.0199 26.2077 17.5156C26.2631 11.881 26.225 6.24647 26.2112 0.611906H30.0192L30.0227 0.608887ZM28.4337 22.048C20.3711 22.0389 14.0775 27.441 14.0671 34.374C14.0567 41.2194 20.3676 46.7724 28.1983 46.8087C36.1951 46.8449 42.513 41.3855 42.5199 34.4344C42.5268 27.5044 36.3336 22.0571 28.4337 22.051V22.048Z" fill="white"/>
</svg>
