<svg width="68" height="57" viewBox="0 0 68 57" fill="none" xmlns="http://www.w3.org/2000/svg">
<path d="M67.243 31.7214C66.85 28.8918 65.8919 26.2083 64.3946 23.7464C63.0888 21.5978 61.4133 19.6869 59.4134 18.0627L59.4187 18.0577L38.4148 1.55482C38.3996 1.54118 38.3838 1.52833 38.3674 1.51632C37.6691 0.969084 36.7237 0.667969 35.7062 0.667969C34.6874 0.667969 33.705 0.969754 32.9412 1.51807C32.1201 2.10487 31.6507 2.88348 31.6179 3.71225C31.5879 4.48549 31.9484 5.22949 32.6359 5.80946C33.9877 6.90058 35.3365 8.01544 36.6871 9.13164C37.9978 10.2154 39.3484 11.3315 40.6925 12.418L14.966 12.4002C12.0239 12.4002 10.0206 13.8135 9.60855 16.1796C9.42748 17.216 9.747 18.3556 10.4613 19.2283C11.2192 20.1535 12.3195 20.6639 13.5594 20.6639L15.5207 20.6652C18.23 20.6652 20.9513 20.6584 23.6689 20.6517L26.2605 20.6455L2.91159 38.3164L2.81889 38.3858C1.51469 39.4084 0.660865 40.8421 0.476648 42.3189C0.337011 43.4378 0.59216 44.4603 1.21483 45.2768C1.95694 46.2503 3.1156 46.7858 4.47762 46.7858C5.81565 46.7858 7.18095 46.2671 8.32375 45.3227L20.9326 34.7669C20.8787 35.2824 20.8132 36.0386 20.8207 36.5874C20.8349 37.4564 21.1076 39.2001 21.5394 40.6157C22.4315 43.5249 23.9342 46.1866 26.0055 48.5242C28.1608 50.9562 30.7857 52.8845 33.8069 54.2543C37.0008 55.6994 40.4343 56.433 44.0123 56.433H44.0455C47.6349 56.4241 51.0793 55.6789 54.2836 54.2173C57.3098 52.8313 59.9335 50.8951 62.0806 48.4636C64.1494 46.114 65.65 43.4479 66.5404 40.5411C66.9809 39.1021 67.263 37.6174 67.3816 36.1145C67.4916 34.6619 67.4443 33.1838 67.243 31.7214ZM44.2739 45.6651C36.3885 45.6651 29.994 39.8136 29.994 32.5949C29.994 25.377 36.3887 19.5254 44.2739 19.5254C52.1594 19.5254 58.5533 25.377 58.5533 32.5949C58.5535 39.8136 52.1594 45.6651 44.2739 45.6651Z" fill="url(#paint0_linear_132_2486)"/>
<path d="M50.3084 37.0805C51.7856 35.5996 52.6269 33.5991 52.5106 31.4446C52.3961 29.3522 51.3979 27.5062 49.894 26.1982C48.4158 24.9124 46.4317 24.1274 44.2634 24.1274C42.0954 24.1274 40.1108 24.9121 38.6327 26.1982C37.1296 27.5062 36.1317 29.3536 36.0184 31.4463C35.9027 33.5993 36.7423 35.5996 38.2189 37.0805C39.7221 38.5891 41.8668 39.5367 44.2636 39.5367C46.6614 39.5367 48.8056 38.5891 50.3084 37.0805Z" fill="#FFD6E2"/>
<defs>
<linearGradient id="paint0_linear_132_2486" x1="33.9395" y1="0.667969" x2="33.9395" y2="56.433" gradientUnits="userSpaceOnUse">
<stop offset="1" stop-color="white"/>
</linearGradient>
</defs>
</svg>
