<svg width="49" height="39" viewBox="0 0 49 39" fill="none" xmlns="http://www.w3.org/2000/svg">
<path d="M4.47295 1.66919L4.47295 1.66919L4.4711 1.66927C3.79824 1.69924 3.33246 1.6993 2.81989 1.6993C2.51468 1.6993 2.11858 1.79626 1.82557 2.14259C1.56005 2.45643 1.51709 2.8172 1.51709 3.0405V34.9588C1.51709 35.2188 1.57021 35.6137 1.87156 35.9417C2.18925 36.2875 2.59835 36.3621 2.88045 36.3621H8.75485H8.82763L8.89964 36.3515C9.59209 36.2502 10.147 35.6354 10.0879 34.8778V25.9824C10.1632 25.986 10.2293 25.9906 10.2881 25.9966C10.6426 26.0329 11.1686 26.0329 11.8311 26.0328L11.904 26.0328C14.4565 26.0328 16.8584 25.7468 19.0695 24.914L19.0709 24.9135C21.2238 24.0992 23.0836 22.6716 24.4125 20.7659C25.7679 18.822 26.4091 16.4057 26.4091 13.5869C26.4091 12.0717 26.1455 10.6268 25.6569 9.22524L25.6569 9.22521L25.6525 9.21304C25.1205 7.74828 24.288 6.41614 23.2177 5.31977L23.2178 5.31971L23.2083 5.31029C21.9548 4.05995 20.4382 3.11273 18.7884 2.53562C16.9451 1.83029 14.7596 1.51318 12.2068 1.51318H12.1994C11.2957 1.51318 10.3735 1.51318 9.41827 1.54475C8.97295 1.55946 8.54071 1.56709 8.11398 1.57462L8.07102 1.57538C7.63337 1.58311 7.1995 1.591 6.77899 1.60696C6.39144 1.62166 6.01692 1.62925 5.64332 1.63683L5.6119 1.63746C5.23111 1.64519 4.84923 1.65313 4.47295 1.66919ZM15.1094 17.651L15.0901 17.6566L15.071 17.6629C14.0549 18.0005 12.9806 18.1703 11.904 18.1703H10.2991C10.2401 18.1703 10.1799 18.1693 10.1182 18.1676V9.64582C10.1788 9.64765 10.2423 9.6502 10.3086 9.6536L10.3611 9.65629L10.4135 9.65346C10.9561 9.6242 11.6225 9.62389 12.4188 9.62389H12.4313L12.4438 9.62357C13.5698 9.59544 14.6382 9.7649 15.6083 10.1678L15.619 10.1722L15.6297 10.1764C16.2887 10.4324 16.8485 10.9001 17.2568 11.5321C17.641 12.2043 17.8326 12.9744 17.8084 13.7415L17.8079 13.7573V13.773C17.8079 14.9908 17.5394 15.7882 17.1029 16.3254C16.5465 16.97 15.8619 17.4342 15.1094 17.651ZM43.8246 18.0937L43.8363 18.1001L43.8481 18.1061C44.3084 18.3419 44.7713 18.2594 45.071 18.1911L45.2562 18.149L45.413 18.0419C45.815 17.7674 46.0005 17.3111 46.0005 16.9059V11.8498C46.0005 11.6013 45.944 11.3725 45.9165 11.2613C45.9147 11.2538 45.913 11.2469 45.9114 11.2405L45.8858 11.1358L45.8386 11.039C45.7547 10.8671 45.6374 10.7089 45.5004 10.5786C45.3853 10.469 45.2105 10.3361 44.9785 10.2574C44.1001 9.89499 43.1556 9.62966 42.1749 9.49511C40.8857 9.30218 39.5666 9.20585 38.2782 9.20585C36.0402 9.20585 34.0833 9.55828 32.4717 10.3968C31.0066 11.0988 29.7432 12.2186 28.8855 13.6244L28.8798 13.6338L28.8743 13.6432C28.1271 14.9305 27.7122 16.3695 27.7096 17.8846C27.6772 19.1328 27.9568 20.373 28.5074 21.5011L28.5174 21.5214L28.5282 21.5413C29.1726 22.7226 30.0577 23.736 31.1194 24.5079L31.127 24.5134L31.1348 24.5189C32.5331 25.4955 34.0294 26.2792 35.6522 26.8674C36.3788 27.1562 36.9688 27.4076 37.4294 27.6309C37.9057 27.8619 38.1882 28.0367 38.335 28.1589C38.7026 28.4649 38.7015 28.6137 38.7014 28.6303L38.7014 28.631C38.7014 28.8169 38.5805 28.9739 38.4749 29.0213L38.4511 29.0319L38.428 29.0438C38.0895 29.2171 37.4578 29.3681 36.3706 29.3681C35.2436 29.3681 34.1201 29.2236 33.0578 28.9372L33.0411 28.9327L33.0242 28.9288C31.7979 28.6433 30.6609 28.1895 29.5784 27.5381C29.4774 27.472 29.3035 27.3741 29.0747 27.3351C28.7805 27.2849 28.4714 27.3449 28.2062 27.526L28.7702 28.3518L28.2062 27.526C27.7042 27.8689 27.6491 28.4209 27.6491 28.631V33.9817C27.5943 34.7075 28.0535 35.2328 28.477 35.4807L28.5123 35.5014L28.5493 35.5191C29.596 36.0217 30.7381 36.3902 31.8837 36.5927C33.3144 36.8848 34.7402 37.0135 36.1889 37.0135C38.4646 37.0135 40.4217 36.6586 42.0604 35.9414C43.6031 35.3066 44.9334 34.2194 45.8867 32.8244L45.893 32.8151L45.8992 32.8057C46.7903 31.4364 47.2716 29.791 47.2422 28.1379C47.2729 26.8653 46.9945 25.6286 46.4442 24.5011L46.4342 24.4808L46.4234 24.4609C45.7662 23.2561 44.8325 22.2661 43.6995 21.5275L43.6995 21.5275L43.6926 21.523C42.1869 20.5591 40.5526 19.7519 38.8493 19.1668C38.1575 18.8706 37.4715 18.5477 36.8178 18.1986C36.5187 18.0329 36.2753 17.839 36.1059 17.6326C36.0637 17.5727 36.0375 17.5222 36.0227 17.4844C36.0068 17.4437 36.0079 17.4277 36.0079 17.4332C36.0079 17.3559 36.0369 17.238 36.0901 17.1404C36.1494 17.0644 36.2543 16.9874 36.4189 16.9485L36.4341 16.9449L36.4492 16.9409C36.9504 16.8058 37.4788 16.7325 37.9546 16.7569L37.9801 16.7582H38.0057C39.0659 16.7582 40.1118 16.901 41.1809 17.1378L41.1808 17.1378L41.1907 17.1399C42.136 17.3393 43.0113 17.6493 43.8246 18.0937Z" fill="#211A44" stroke="white" stroke-width="2"/>
</svg>
