<svg width="35" height="25" viewBox="0 0 35 25" fill="none" xmlns="http://www.w3.org/2000/svg">
<path d="M34.1863 6.10594C34.1863 6.10594 33.8594 3.76972 32.8407 2.74763C31.5495 1.40222 30.1057 1.39179 29.4411 1.31357C24.6904 0.974614 17.5752 0.974609 17.5752 0.974609H17.5588C17.5588 0.974609 10.4382 0.974614 5.69292 1.31357C5.02826 1.39179 3.58452 1.39701 2.29333 2.74763C1.27999 3.77494 0.947641 6.11115 0.947641 6.11115C0.947641 6.11115 0.609863 8.84368 0.609863 11.5866V14.1523C0.609863 16.8953 0.947641 19.633 0.947641 19.633C0.947641 19.633 1.27999 21.9692 2.29333 22.9913C3.58452 24.3367 5.28431 24.295 6.0307 24.4358C8.74384 24.6966 17.5643 24.78 17.5643 24.78C17.5643 24.78 24.6903 24.7643 29.4356 24.4254C30.1003 24.3472 31.544 24.3367 32.8352 22.9913C33.8485 21.964 34.1809 19.633 34.1809 19.633C34.1809 19.633 34.5186 16.8953 34.5186 14.1523V11.5866C34.5186 8.84368 34.1809 6.10594 34.1809 6.10594H34.1863ZM23.2303 12.5305L14.0721 17.2655V9.97529V7.75902L18.2017 9.91271L23.2357 12.5305H23.2303Z" fill="#211A44"/>
</svg>
